<svg width="827" height="501" viewBox="0 0 827 501" fill="none" xmlns="http://www.w3.org/2000/svg">
<g clip-path="url(#clip0_64_355)">
<path d="M410.226 200.149H129.142C125.353 200.145 121.72 198.635 119.041 195.951C116.362 193.267 114.854 189.628 114.85 185.832V13.9032C114.853 11.0126 116.001 8.2412 118.041 6.19715C120.082 4.15311 122.848 3.0033 125.734 3H413.473C416.402 3.0033 419.209 4.17015 421.28 6.24452C423.351 8.31889 424.515 11.1314 424.519 14.065V185.832C424.514 189.628 423.007 193.267 420.328 195.951C417.648 198.635 414.016 200.145 410.226 200.149Z" fill="white"/>
<path d="M410.226 200.149H129.142C125.353 200.145 121.72 198.635 119.041 195.951C116.362 193.267 114.854 189.628 114.85 185.832V13.9032C114.853 11.0126 116.001 8.2412 118.041 6.19715C120.082 4.15311 122.848 3.0033 125.734 3H413.473C416.402 3.0033 419.209 4.17015 421.28 6.24452C423.351 8.31889 424.515 11.1314 424.519 14.065V185.832C424.514 189.628 423.007 193.267 420.328 195.951C417.648 198.635 414.016 200.145 410.226 200.149ZM125.734 6.09567C123.667 6.09809 121.687 6.92147 120.225 8.38516C118.764 9.84885 117.943 11.8333 117.94 13.9032V185.832C117.944 188.807 119.125 191.659 121.225 193.763C123.325 195.867 126.172 197.05 129.142 197.054H410.226C413.196 197.05 416.044 195.867 418.144 193.763C420.244 191.659 421.425 188.807 421.428 185.832V14.065C421.426 11.9521 420.587 9.92647 419.096 8.43244C417.605 6.93841 415.582 6.09803 413.473 6.09567H125.734Z" fill="#E6E6E6"/>
<path d="M242.934 156.872H158.911C156.855 156.869 154.87 156.114 153.325 154.747C151.779 153.379 150.778 151.493 150.506 149.437C150.455 149.067 150.431 148.694 150.433 148.32V54.8286C150.436 52.5612 151.33 50.3874 152.919 48.7841C154.508 47.1808 156.663 46.2789 158.911 46.2764H242.934C245.182 46.2789 247.336 47.1808 248.926 48.7841C250.515 50.3874 251.409 52.5612 251.412 54.8286V148.32C251.409 150.587 250.515 152.761 248.926 154.365C247.336 155.968 245.182 156.87 242.934 156.872ZM158.911 50.9412C157.889 50.9424 156.91 51.3524 156.187 52.0811C155.465 52.8099 155.058 53.798 155.057 54.8286V148.32C155.056 148.48 155.065 148.64 155.087 148.798C155.205 149.738 155.658 150.602 156.362 151.23C157.065 151.857 157.972 152.205 158.911 152.207H242.934C243.956 152.206 244.935 151.796 245.658 151.068C246.38 150.339 246.786 149.351 246.787 148.32V54.8286C246.786 53.798 246.38 52.8099 245.658 52.0811C244.935 51.3524 243.956 50.9424 242.934 50.9412H158.911Z" fill="#E6E6E6"/>
<path d="M382.75 126.097H280.679C279.039 126.097 277.465 125.439 276.305 124.266C275.145 123.094 274.493 121.504 274.493 119.846C274.493 118.188 275.145 116.598 276.305 115.426C277.465 114.254 279.039 113.595 280.679 113.595H382.75C384.39 113.595 385.964 114.254 387.124 115.426C388.284 116.598 388.936 118.188 388.936 119.846C388.936 121.504 388.284 123.094 387.124 124.266C385.964 125.439 384.39 126.097 382.75 126.097Z" fill="#E6E6E6"/>
<path d="M336.567 100.132H280.701C279.054 100.132 277.475 99.4734 276.311 98.3011C275.147 97.1288 274.493 95.5388 274.493 93.881C274.493 92.2231 275.147 90.6331 276.311 89.4608C277.475 88.2885 279.054 87.6299 280.701 87.6299H336.567C338.213 87.6299 339.792 88.2885 340.956 89.4608C342.12 90.6331 342.774 92.2231 342.774 93.881C342.774 95.5388 342.12 97.1288 340.956 98.3011C339.792 99.4734 338.213 100.132 336.567 100.132Z" fill="#E6E6E6"/>
<path d="M229.293 98.9037C229.293 112.682 216.591 110.598 200.922 110.598C185.254 110.598 172.552 112.682 172.552 98.9037C172.552 85.1252 178.756 60.7019 200.922 60.7019C223.852 60.7019 229.293 85.1252 229.293 98.9037Z" fill="#2F2E41"/>
<path d="M230.146 122.117C229.612 120.561 228.547 119.247 227.143 118.411C226.872 118.243 226.588 118.097 226.293 117.974C225.061 117.457 223.707 117.313 222.395 117.561C221.084 117.808 219.872 118.436 218.909 119.368C217.945 120.3 217.271 121.495 216.969 122.807C216.667 124.119 216.75 125.492 217.208 126.757L228.235 152.064H242.757L230.146 122.117Z" fill="#1B655A"/>
<path d="M181.107 122.954C180.219 122.521 179.251 122.282 178.267 122.254C177.282 122.225 176.302 122.407 175.391 122.788C174.481 123.169 173.66 123.74 172.984 124.464C172.307 125.188 171.789 126.048 171.465 126.988L161.012 151.837C161.547 151.988 162.1 152.064 162.656 152.064H175.772L184.634 131.716C185.226 130.073 185.192 128.268 184.54 126.649C183.888 125.03 182.665 123.713 181.107 122.954Z" fill="#1B655A"/>
<path d="M200.442 110.711C211.065 110.711 219.676 102.099 219.676 91.4767C219.676 80.8541 211.065 72.2427 200.442 72.2427C189.819 72.2427 181.208 80.8541 181.208 91.4767C181.208 102.099 189.819 110.711 200.442 110.711Z" fill="#FFB8B8"/>
<path d="M227.404 118.066C227.297 117.964 227.189 117.855 227.074 117.761C225.756 116.556 224.197 115.655 222.503 115.121C220.809 114.586 219.021 114.429 217.262 114.663L182.433 119.135C179.242 119.535 176.331 121.18 174.317 123.722C172.302 126.263 171.344 129.5 171.644 132.747C172.121 138.195 172.891 145.071 174.122 152.064H229.144L231.168 128.212C231.33 126.343 231.077 124.46 230.425 122.704C229.774 120.948 228.742 119.363 227.404 118.066Z" fill="#1B655A"/>
<path d="M178.323 89.5532H185.862L189.188 80.2321L189.853 89.5532H193.457L195.397 84.1159L195.785 89.5532H222.561C222.561 84.1969 220.435 79.0601 216.651 75.2726C212.867 71.4852 207.734 69.3574 202.382 69.3574H198.502C193.15 69.3574 188.017 71.4852 184.233 75.2726C180.449 79.0601 178.323 84.1969 178.323 89.5532Z" fill="#2F2E41"/>
<path d="M221.838 352.539C216.409 363.189 212.13 374.174 200.155 374.174C194.404 374.174 188.889 371.894 184.823 367.837C180.757 363.78 178.472 358.277 178.472 352.539C178.472 346.801 180.757 341.298 184.823 337.241C188.889 333.184 194.404 330.905 200.155 330.905C212.325 330.753 231.942 332.716 221.838 352.539Z" fill="#2F2E41"/>
<path d="M424.668 456.027V284.26C424.665 281.326 423.5 278.514 421.43 276.439C419.359 274.365 416.552 273.198 413.623 273.195H125.884C122.998 273.198 120.232 274.348 118.191 276.392C116.151 278.436 115.003 281.207 115 284.098V456.027C115.004 459.823 116.511 463.462 119.191 466.146C121.87 468.83 125.503 470.34 129.292 470.344H410.376C414.165 470.34 417.798 468.83 420.478 466.146C423.157 463.462 424.664 459.823 424.668 456.027Z" fill="white"/>
<path d="M424.668 456.027V284.26C424.665 281.326 423.5 278.514 421.43 276.439C419.359 274.365 416.552 273.198 413.623 273.195H125.884C122.998 273.198 120.232 274.348 118.191 276.392C116.151 278.436 115.003 281.207 115 284.098V456.027C115.004 459.823 116.511 463.462 119.191 466.146C121.87 468.83 125.503 470.34 129.292 470.344H410.376C414.165 470.34 417.798 468.83 420.478 466.146C423.157 463.462 424.664 459.823 424.668 456.027ZM413.623 276.29C415.732 276.293 417.754 277.133 419.246 278.627C420.737 280.121 421.576 282.147 421.578 284.26V456.027C421.575 459.002 420.394 461.854 418.294 463.958C416.193 466.062 413.346 467.245 410.376 467.248H129.292C126.322 467.245 123.475 466.062 121.375 463.958C119.275 461.854 118.094 459.002 118.09 456.027V284.098C118.092 282.028 118.914 280.044 120.375 278.58C121.836 277.116 123.817 276.293 125.884 276.29H413.623Z" fill="#E6E6E6"/>
<path d="M251.562 418.515V325.024C251.559 322.756 250.665 320.582 249.076 318.979C247.487 317.376 245.332 316.474 243.084 316.471H159.061C156.813 316.474 154.659 317.376 153.069 318.979C151.48 320.582 150.586 322.756 150.583 325.024V418.515C150.581 418.889 150.605 419.262 150.657 419.632C150.928 421.688 151.929 423.574 153.475 424.942C155.021 426.309 157.005 427.064 159.061 427.067H243.084C245.332 427.065 247.487 426.163 249.076 424.56C250.665 422.956 251.559 420.783 251.562 418.515ZM243.084 321.136C244.106 321.137 245.085 321.547 245.808 322.276C246.53 323.005 246.937 323.993 246.938 325.024V418.515C246.937 419.546 246.53 420.534 245.808 421.263C245.085 421.991 244.106 422.401 243.084 422.403H159.061C158.122 422.4 157.216 422.052 156.512 421.425C155.808 420.798 155.355 419.933 155.237 418.993C155.216 418.835 155.206 418.675 155.208 418.515V325.024C155.209 323.993 155.615 323.005 156.338 322.276C157.06 321.547 158.039 321.137 159.061 321.136H243.084Z" fill="#E6E6E6"/>
<path d="M389.085 390.041C389.084 388.384 388.431 386.795 387.272 385.623C386.112 384.451 384.539 383.792 382.899 383.79H280.829C279.188 383.79 277.615 384.449 276.455 385.621C275.294 386.793 274.643 388.383 274.643 390.041C274.643 391.699 275.294 393.289 276.455 394.462C277.615 395.634 279.188 396.292 280.829 396.292H382.899C384.539 396.291 386.112 395.631 387.272 394.459C388.431 393.288 389.084 391.699 389.085 390.041Z" fill="#E6E6E6"/>
<path d="M343.396 365.758C343.395 364.101 342.74 362.512 341.576 361.34C340.413 360.168 338.835 359.509 337.189 359.507H281.323C279.677 359.507 278.098 360.166 276.934 361.338C275.77 362.51 275.116 364.1 275.116 365.758C275.116 367.416 275.77 369.006 276.934 370.178C278.098 371.351 279.677 372.009 281.323 372.009H337.189C338.835 372.007 340.413 371.348 341.576 370.176C342.74 369.004 343.395 367.415 343.396 365.758Z" fill="#E6E6E6"/>
<path d="M201.554 375.136C190.931 375.136 182.32 366.524 182.32 355.902C182.32 345.279 190.931 336.667 201.554 336.667C212.176 336.667 220.788 345.279 220.788 355.902C220.788 366.524 212.176 375.136 201.554 375.136Z" fill="#FFB8B8"/>
<path d="M175.54 390.492C176.766 389.159 178.099 387.928 179.526 386.812C185.766 381.927 193.587 379.506 201.5 380.009C201.817 380.025 202.134 380.048 202.452 380.079C207.034 380.445 211.486 381.781 215.511 383.999C219.536 386.217 223.042 389.266 225.795 392.943C228.591 396.676 230.557 400.962 231.561 405.515C232.565 410.069 232.583 414.783 231.616 419.344C231.407 420.311 231.221 421.285 231.043 422.259H168.025L167.297 417.388C166.57 412.575 166.932 407.66 168.359 403.005C169.786 398.35 172.24 394.074 175.54 390.492Z" fill="#1B655A"/>
<path d="M165.818 395.741C166.272 393.217 167.623 390.927 169.635 389.271C171.647 387.614 174.193 386.696 176.83 386.676C176.933 386.676 177.044 386.684 177.146 386.684C178.025 386.703 178.897 386.822 179.747 387.037C181.176 387.406 182.516 388.046 183.689 388.919C184.863 389.793 185.847 390.883 186.586 392.127C187.325 393.371 187.804 394.745 187.995 396.169C188.186 397.593 188.086 399.04 187.7 400.427L181.621 422.259H161.162L165.818 395.741Z" fill="#1B655A"/>
<path d="M210.442 389.76C211.185 388.276 212.25 386.984 213.557 385.981C214.482 385.27 215.517 384.721 216.619 384.355C217.069 384.198 217.53 384.074 217.997 383.983C220.545 383.493 223.18 383.945 225.429 385.257C227.678 386.569 229.391 388.654 230.26 391.138L240.984 422.258H220.632L210.251 399.369C209.559 397.859 209.217 396.208 209.25 394.542C209.283 392.876 209.69 391.24 210.442 389.76Z" fill="#1B655A"/>
<path d="M221.749 344.804C217.353 347.763 212.136 349.338 206.798 349.317C208.702 350.606 210.87 351.477 213.152 351.87C206.054 353.357 198.719 353.397 191.604 351.988C190.023 351.741 188.497 351.229 187.094 350.475C186.394 350.094 185.785 349.573 185.305 348.946C184.826 348.32 184.486 347.601 184.309 346.838C183.837 344.2 185.941 341.804 188.128 340.189C191.477 337.754 195.337 336.076 199.431 335.277C203.525 334.478 207.749 334.578 211.798 335.569C214.442 336.237 217.091 337.364 218.809 339.438C220.526 341.512 221.035 344.71 219.399 346.845L221.749 344.804Z" fill="#2F2E41"/>
<path d="M589.255 341.501H308.171C304.382 341.497 300.749 339.987 298.07 337.303C295.391 334.618 293.883 330.979 293.879 327.183V155.255C293.882 152.364 295.03 149.593 297.07 147.549C299.111 145.505 301.877 144.355 304.763 144.352H592.502C595.431 144.355 598.238 145.522 600.309 147.596C602.38 149.67 603.544 152.483 603.548 155.417V327.183C603.543 330.979 602.036 334.618 599.357 337.303C596.677 339.987 593.045 341.497 589.255 341.501Z" fill="white"/>
<path d="M589.255 341.501H308.171C304.382 341.497 300.749 339.987 298.07 337.303C295.391 334.618 293.883 330.979 293.879 327.183V155.255C293.882 152.364 295.03 149.593 297.07 147.549C299.111 145.505 301.877 144.355 304.763 144.352H592.502C595.431 144.355 598.238 145.522 600.309 147.596C602.38 149.67 603.544 152.483 603.548 155.417V327.183C603.543 330.979 602.036 334.618 599.357 337.303C596.677 339.987 593.045 341.497 589.255 341.501ZM304.763 147.447C302.697 147.45 300.716 148.273 299.255 149.737C297.793 151.2 296.972 153.185 296.969 155.255V327.183C296.973 330.159 298.154 333.011 300.254 335.115C302.354 337.218 305.201 338.402 308.171 338.405H589.255C592.225 338.402 595.073 337.218 597.173 335.115C599.273 333.011 600.454 330.159 600.457 327.183V155.417C600.455 153.304 599.616 151.278 598.125 149.784C596.634 148.29 594.612 147.45 592.502 147.447H304.763Z" fill="#EF7445"/>
<path d="M421.963 297.263H337.94C335.884 297.26 333.9 296.511 332.354 295.156C330.808 293.801 329.807 291.93 329.536 289.893C329.484 289.526 329.46 289.156 329.462 288.785V196.107C329.465 193.859 330.359 191.704 331.948 190.115C333.538 188.525 335.692 187.631 337.94 187.629H421.963C424.211 187.631 426.366 188.525 427.955 190.115C429.544 191.704 430.438 193.859 430.441 196.107V288.785C430.438 291.033 429.544 293.188 427.955 294.777C426.366 296.367 424.211 297.261 421.963 297.263ZM337.94 192.253C336.918 192.254 335.939 192.661 335.217 193.383C334.494 194.106 334.088 195.085 334.087 196.107V288.785C334.085 288.944 334.095 289.102 334.116 289.259C334.234 290.191 334.687 291.048 335.391 291.67C336.095 292.292 337.001 292.636 337.94 292.639H421.963C422.985 292.638 423.964 292.231 424.687 291.509C425.409 290.786 425.816 289.807 425.817 288.785V196.107C425.816 195.085 425.409 194.106 424.687 193.383C423.964 192.661 422.985 192.254 421.963 192.253H337.94Z" fill="#EF7445"/>
<path d="M378.726 204.916C373.231 202.355 366.485 201.515 360.893 203.895C355.302 206.274 351.49 212.373 353.298 217.771C354.118 220.218 355.985 222.625 355.257 225.097C354.697 226.999 352.744 228.255 350.826 229.148C348.908 230.041 346.81 230.792 345.423 232.299C344.036 233.805 343.747 236.398 345.479 237.566C346.05 237.951 346.764 238.133 347.317 238.539C347.789 238.923 348.13 239.445 348.291 240.032C348.453 240.619 348.428 241.242 348.219 241.814C347.758 242.964 346.995 243.969 346.012 244.723C344.045 246.422 341.445 248.367 342.056 250.779C342.282 251.424 342.661 252.004 343.159 252.471C343.657 252.938 344.261 253.278 344.918 253.461C346.283 253.856 347.7 254.043 349.12 254.017L407.165 255.848C409.081 255.993 411.008 255.885 412.896 255.528C413.814 255.36 414.687 255.004 415.462 254.483C416.236 253.962 416.895 253.287 417.397 252.499C418.509 250.438 417.779 247.899 416.406 245.975C415.033 244.05 413.091 242.532 411.485 240.765C409.88 238.998 408.567 236.792 408.85 234.508C409.076 232.679 410.28 231.099 411.144 229.438C412.008 227.776 412.51 225.7 411.391 224.172C409.814 222.019 406.028 222.213 404.234 220.207C402.881 218.692 403.142 216.512 403.008 214.559C402.684 209.862 399.438 205.425 394.816 203.365C392.466 202.354 389.909 201.918 387.358 202.092C384.806 202.266 382.332 203.046 380.141 204.366L378.726 204.916Z" fill="#2F2E41"/>
<path d="M380.914 254.948C391.271 254.948 399.667 246.336 399.667 235.714C399.667 225.091 391.271 216.479 380.914 216.479C370.557 216.479 362.161 225.091 362.161 235.714C362.161 246.336 370.557 254.948 380.914 254.948Z" fill="#FFB8B8"/>
<path d="M406.089 279.041C406.069 275.715 405.137 272.456 403.391 269.612C401.644 266.768 399.15 264.446 396.173 262.893C395.93 262.761 395.68 262.645 395.43 262.529C393.268 261.517 390.929 260.929 388.54 260.799L370.257 259.786C367.675 259.641 365.09 260.033 362.672 260.938C362.083 261.155 361.506 261.402 360.943 261.68C359.176 262.54 357.56 263.674 356.157 265.041C354.31 266.843 352.864 269.007 351.913 271.394C350.962 273.782 350.527 276.339 350.636 278.902L350.965 286.559L353.264 292.455H404.384C405.018 291.696 405.568 290.872 406.026 289.998C406.893 288.3 407.349 286.428 407.36 284.527C407.371 282.626 406.936 280.748 406.089 279.041Z" fill="#1B655A"/>
<path d="M404.836 268.996C403.99 267.216 402.665 265.691 401.001 264.581C399.799 263.783 398.452 263.214 397.031 262.905C396.462 262.783 395.885 262.704 395.304 262.666C394.16 262.591 393.011 262.687 391.897 262.951C390.234 263.353 388.686 264.116 387.372 265.183C386.057 266.25 385.009 267.594 384.308 269.112C383.607 270.63 383.27 272.282 383.323 273.945C383.376 275.608 383.818 277.237 384.615 278.71L391.738 291.8L392.095 292.454H416.016L404.836 268.996Z" fill="#1B655A"/>
<path d="M366.632 262.852C365.521 262.311 364.323 261.95 363.088 261.785C362.168 261.659 361.236 261.647 360.313 261.747C357.965 262.001 355.761 262.959 354.016 264.484C352.271 266.009 351.075 268.022 350.598 270.236L345.811 292.455H364.534L368.032 291.086L372.386 275.101C373.02 272.738 372.795 270.239 371.75 268.013C370.705 265.788 368.9 263.968 366.632 262.852Z" fill="#1B655A"/>
<path d="M361.201 233.047C367.293 232.575 372.351 226.709 371.717 220.85C371.646 223.265 372.498 225.621 374.111 227.47C375.724 229.319 377.987 230.532 380.467 230.878C383.262 231.174 386.325 230.36 388.757 231.718C391.451 233.223 392.313 236.878 395.12 238.178C397.831 239.434 401.275 237.721 402.615 235.125C403.955 232.528 403.626 229.409 402.738 226.638C401.472 222.687 399.166 219.119 396.046 216.281C392.925 213.443 389.096 211.432 384.93 210.443C380.764 209.454 376.404 209.521 372.273 210.638C368.142 211.755 364.381 213.883 361.356 216.816C358.795 219.299 356.761 222.464 356.431 225.952C356.101 229.439 357.78 233.223 361.029 234.79L361.201 233.047Z" fill="#2F2E41"/>
<path d="M559.294 240.277H457.223C455.583 240.277 454.009 239.619 452.849 238.446C451.689 237.274 451.037 235.684 451.037 234.026C451.037 232.368 451.689 230.778 452.849 229.606C454.009 228.434 455.583 227.775 457.223 227.775H559.294C560.935 227.775 562.508 228.434 563.668 229.606C564.828 230.778 565.48 232.368 565.48 234.026C565.48 235.684 564.828 237.274 563.668 238.446C562.508 239.619 560.935 240.277 559.294 240.277Z" fill="#EF7445"/>
<path d="M513.111 214.311H457.245C455.598 214.311 454.02 213.652 452.855 212.48C451.691 211.308 451.037 209.718 451.037 208.06C451.037 206.402 451.691 204.812 452.855 203.639C454.02 202.467 455.598 201.809 457.245 201.809H513.111C514.757 201.809 516.336 202.467 517.5 203.639C518.664 204.812 519.318 206.402 519.318 208.06C519.318 209.718 518.664 211.308 517.5 212.48C516.336 213.652 514.757 214.311 513.111 214.311Z" fill="#EF7445"/>
<path d="M471.714 252.069C466.227 252.079 460.968 254.211 457.091 257.997C453.215 261.784 451.037 266.915 451.037 272.265C451.037 277.614 453.214 282.746 457.091 286.532C460.967 290.318 466.227 292.451 471.714 292.46C477.201 292.451 482.46 290.318 486.337 286.532C490.213 282.746 492.391 277.614 492.391 272.265C492.391 266.915 490.213 261.784 486.337 257.997C482.46 254.211 477.201 252.079 471.714 252.069Z" fill="#EF7445"/>
<path d="M469.896 280.92C469.347 280.92 468.812 280.746 468.373 280.421L468.346 280.401L462.611 276.082C462.076 275.677 461.726 275.079 461.638 274.42C461.55 273.761 461.731 273.094 462.142 272.566C462.553 272.039 463.16 271.693 463.829 271.606C464.499 271.518 465.176 271.696 465.712 272.1L469.427 274.904L478.204 263.629C478.407 263.368 478.661 263.149 478.951 262.984C479.24 262.819 479.56 262.712 479.892 262.669C480.223 262.626 480.56 262.647 480.884 262.732C481.207 262.818 481.51 262.964 481.775 263.165L481.776 263.165L481.721 263.24L481.777 263.165C482.313 263.571 482.663 264.169 482.752 264.828C482.84 265.487 482.659 266.154 482.249 266.683L471.925 279.938C471.686 280.244 471.379 280.491 471.027 280.66C470.676 280.83 470.289 280.918 469.898 280.917L469.896 280.92Z" fill="white"/>
<path d="M562.795 221.577C564.368 222.528 566.13 223.122 567.958 223.318C569.785 223.514 571.633 223.308 573.372 222.712C575.111 222.117 576.698 221.148 578.022 219.873C579.345 218.598 580.373 217.048 581.033 215.333L625.684 216.819L613.555 197.023L573.013 198.647C570.058 197.729 566.869 197.927 564.05 199.204C561.232 200.481 558.979 202.747 557.719 205.573C556.46 208.4 556.281 211.59 557.216 214.539C558.152 217.489 560.137 219.993 562.795 221.577Z" fill="#FFB8B8"/>
<path d="M817.441 254.898C818.653 253.516 819.547 251.885 820.06 250.12C820.574 248.356 820.694 246.5 820.412 244.684C820.13 242.867 819.454 241.135 818.43 239.609C817.407 238.082 816.061 236.799 814.488 235.848L823.771 192.148L802.157 200.623L796.656 240.822C795.235 243.571 794.871 246.745 795.635 249.744C796.398 252.743 798.235 255.357 800.797 257.092C803.359 258.827 806.468 259.562 809.536 259.158C812.604 258.753 815.417 257.238 817.441 254.898Z" fill="#FFB8B8"/>
<path d="M712.846 482.648L697.519 482.647L690.228 423.528L712.849 423.529L712.846 482.648Z" fill="#FFB8B8"/>
<path d="M716.755 497.505L667.334 497.503V496.878C667.334 494.352 667.832 491.851 668.798 489.517C669.765 487.183 671.182 485.062 672.968 483.276C674.754 481.49 676.875 480.073 679.209 479.106C681.543 478.14 684.044 477.642 686.57 477.642L716.756 477.644L716.755 497.505Z" fill="#2F2E41"/>
<path d="M787.858 482.648L772.53 482.647L765.239 423.528L787.86 423.529L787.858 482.648Z" fill="#FFB8B8"/>
<path d="M791.766 497.505L742.345 497.503V496.878C742.345 494.352 742.843 491.851 743.809 489.517C744.776 487.183 746.193 485.062 747.979 483.276C749.765 481.49 751.886 480.073 754.22 479.106C756.554 478.14 759.055 477.642 761.581 477.642L791.767 477.644L791.766 497.505Z" fill="#2F2E41"/>
<path d="M714.443 451.777L692.746 450.909C691.266 450.845 689.87 450.202 688.86 449.118C687.85 448.035 687.307 446.597 687.348 445.116L693.46 244.613L693.86 244.469C731.886 230.713 763.343 231.753 790.032 247.644L790.33 247.822L793.992 443.104C794.006 443.852 793.871 444.595 793.595 445.29C793.318 445.984 792.906 446.617 792.383 447.151C791.859 447.685 791.234 448.109 790.545 448.398C789.855 448.687 789.115 448.836 788.367 448.836H770.072C768.769 448.834 767.507 448.38 766.5 447.553C765.494 446.725 764.805 445.574 764.551 444.296L739.629 317.515C739.543 317.077 739.303 316.684 738.953 316.407C738.603 316.129 738.166 315.986 737.72 316.003C737.273 316.019 736.848 316.194 736.519 316.497C736.19 316.799 735.981 317.209 735.927 317.652L720.252 446.834C720.08 448.196 719.418 449.449 718.39 450.359C717.362 451.27 716.038 451.775 714.665 451.781C714.591 451.781 714.517 451.78 714.443 451.777Z" fill="#2F2E41"/>
<path d="M735.55 68.777C752.509 68.777 766.256 55.0295 766.256 38.0711C766.256 21.1127 752.509 7.36523 735.55 7.36523C718.592 7.36523 704.844 21.1127 704.844 38.0711C704.844 55.0295 718.592 68.777 735.55 68.777Z" fill="#FFB8B8"/>
<path d="M588.304 214.321C587.962 213.228 587.961 212.057 588.302 210.964L591.484 200.77C591.831 199.668 592.508 198.698 593.424 197.993C594.34 197.287 595.451 196.88 596.606 196.827L636.89 195.046L685.87 114.275L695.352 99.3042L701.34 92.3179L706.33 87.8268L710.322 85.3318C713.815 85.3318 717.43 118.566 719.803 118.766C719.803 120.762 719.265 131.916 720.801 133.736C722.338 135.557 720.801 141.222 720.801 141.222C721.523 143.492 721.004 144.836 720.801 147.21C720.599 149.583 719.803 151.202 719.803 151.202C718.707 153.317 718.632 155.656 716.809 157.19L713.231 161.528L697.847 172.161L663.415 216.573C651.259 223.626 646.718 228.768 632.927 226.064L592.591 218.161C591.815 218.009 591.081 217.695 590.434 217.24C589.788 216.785 589.245 216.199 588.84 215.52C588.615 215.143 588.435 214.741 588.304 214.321Z" fill="#EF7445"/>
<path d="M816.13 226.605C815.053 226.994 813.883 227.044 812.776 226.75L802.456 224.006C801.34 223.706 800.342 223.071 799.599 222.186C798.855 221.301 798.401 220.208 798.298 219.057L794.802 178.884L758.544 115.014C757.724 112.778 757.352 110.402 757.451 108.022C757.549 105.642 758.115 103.305 759.118 101.144C760.12 98.9836 761.538 97.0417 763.292 95.4295C765.045 93.8173 767.099 92.5666 769.336 91.7488C771.573 90.9311 773.95 90.5623 776.329 90.6636C778.709 90.7649 781.045 91.3343 783.205 92.3393C785.364 93.3442 787.305 94.765 788.915 96.5203C790.525 98.2757 791.773 100.331 792.588 102.569L817.506 141.596C825.07 153.44 828.075 167.629 825.961 181.522L819.784 222.159C819.665 222.94 819.383 223.688 818.956 224.353C818.529 225.018 817.967 225.585 817.306 226.019C816.939 226.26 816.544 226.457 816.13 226.605Z" fill="#EF7445"/>
<path d="M701.964 92.6007C707.239 86.8169 713.744 82.291 721.001 79.357C728.257 76.423 736.08 75.1558 743.892 75.6487C744.406 75.6805 744.917 75.7163 745.426 75.7562C752.83 76.3416 760.024 78.501 766.527 82.0899C773.029 85.6789 778.69 90.6147 783.132 96.5674C787.648 102.603 790.823 109.534 792.445 116.895C794.067 124.257 794.1 131.88 792.54 139.254C786.586 167.439 788.092 196.689 796.911 224.112L805.148 249.69C805.412 250.509 805.485 251.378 805.36 252.23C805.235 253.082 804.916 253.894 804.428 254.604C803.94 255.313 803.295 255.901 802.544 256.321C801.793 256.742 800.955 256.985 800.095 257.031L757.982 259.295L747.206 240.68V259.874L696.022 262.626C695.92 262.632 695.819 262.635 695.718 262.635C694.941 262.634 694.173 262.473 693.461 262.162C692.75 261.85 692.111 261.394 691.584 260.823C691.058 260.252 690.655 259.578 690.402 258.844C690.148 258.11 690.05 257.331 690.112 256.557L695.897 184.819L688.641 136.096C687.466 128.311 688.054 120.362 690.36 112.834C692.665 105.306 696.631 98.3921 701.964 92.6007Z" fill="#EF7445"/>
<path d="M756.891 67.3848C754.048 69.0206 742.811 70.1052 742.01 66.9244L741.993 66.8545C741.436 64.524 741.899 62.0904 742.058 59.6996C742.218 57.3087 741.984 54.6823 740.356 52.9244C737.321 49.6474 731.92 51.3845 727.531 50.556C724.96 49.9821 722.686 48.4911 721.135 46.3619C719.584 44.2326 718.862 41.6112 719.105 38.9881C719.167 38.4912 719.265 37.9937 719.375 37.4965C719.65 36.2367 719.628 34.9305 719.313 33.6803C718.998 32.4301 718.397 31.27 717.558 30.2911C716.719 29.3122 715.664 28.541 714.477 28.0382C713.29 27.5355 712.002 27.3147 710.715 27.3934C706.28 27.647 701.492 28.9909 697.822 25.7054C694.983 23.1648 694.291 16.5511 695.538 12.9519C697.634 6.9031 711.057 3.73645 716.919 1.99565C724.167 -0.0988013 731.792 -0.551606 739.238 0.670148C746.683 1.8919 753.763 4.75749 759.963 9.05862C763.665 11.6681 767.122 14.9468 768.7 19.1924C770.278 23.4379 769.517 28.7942 765.959 31.5968C768.717 34.5168 770.659 38.1104 771.591 42.0174C772.522 45.9245 772.411 50.0078 771.267 53.8581C769.51 59.5208 761.123 64.9498 756.891 67.3848Z" fill="#2F2E41"/>
<path d="M826.138 501H116.862C116.368 501 115.894 500.842 115.545 500.561C115.196 500.279 115 499.898 115 499.5C115 499.102 115.196 498.721 115.545 498.439C115.894 498.158 116.368 498 116.862 498H826.138C826.632 498 827.106 498.158 827.455 498.439C827.804 498.721 828 499.102 828 499.5C828 499.898 827.804 500.279 827.455 500.561C827.106 500.842 826.632 501 826.138 501Z" fill="#DFDFDF"/>
</g>
<defs>
<clipPath id="clip0_64_355">
<rect width="827" height="501" fill="white"/>
</clipPath>
</defs>
</svg>
