<svg width="34" height="24" viewBox="0 0 34 24" fill="none" xmlns="http://www.w3.org/2000/svg">
<g id="Group 144">
<rect id="BASE" x="0.5" y="0.5" width="33" height="23" rx="3.5" fill="white" stroke="#D9D9D9"/>
<g id="Elo">
<path id="Elo_2" d="M7.82406 9.49561C8.11175 9.40128 8.41952 9.35007 8.73975 9.35007C10.1373 9.35007 11.3031 10.3239 11.5705 11.6176L13.5509 11.2215C13.0965 9.02277 11.1154 7.36768 8.73975 7.36768C8.19585 7.36768 7.67231 7.4546 7.18359 7.61471L7.82406 9.49561Z" fill="#FECA2F"/>
<path id="Elo_3" d="M5.46727 15.8676L6.65306 14.3365C6.12376 13.8011 5.78968 13.0195 5.78968 12.1483C5.78968 11.2777 6.12344 10.4961 6.6526 9.96109L5.46618 8.43018C4.56678 9.33977 4 10.6684 4 12.1483C4 13.6289 4.56761 14.958 5.46727 15.8676Z" fill="#1BA7DE"/>
<path id="Elo_4" d="M11.5711 12.6802C11.3028 13.9737 10.1377 14.9463 8.74142 14.9463C8.42105 14.9463 8.11268 14.8949 7.82497 14.8003L7.18359 16.6822C7.67307 16.8431 8.19677 16.9301 8.74142 16.9301C11.1149 16.9301 13.0947 15.2762 13.5509 13.0783L11.5711 12.6802Z" fill="#EC412A"/>
<path id="Elo_5" fill-rule="evenodd" clip-rule="evenodd" d="M23.0796 8.43018V13.8714L24.056 14.2628L23.5941 15.336L22.6285 14.9479C22.4114 14.8569 22.2644 14.7181 22.1528 14.5615C22.0456 14.4012 21.9661 14.1821 21.9661 13.8864V8.43018H23.0796ZM15.6739 12.4743C15.6982 10.9183 17.0233 9.67615 18.6313 9.69999C19.9961 9.72068 21.1268 10.645 21.4238 11.8745L16.1454 14.056C15.8388 13.6028 15.6646 13.0575 15.6739 12.4743ZM16.8817 12.6924C16.8745 12.6271 16.8693 12.5602 16.8713 12.4927C16.8864 11.5759 17.6666 10.8444 18.6139 10.8596C19.1296 10.8662 19.5875 11.0946 19.897 11.448L16.8817 12.6924ZM19.7859 13.7026C19.4677 14.0019 19.0363 14.1842 18.56 14.1776C18.2335 14.1724 17.931 14.0778 17.6738 13.9204L17.0361 14.9028C17.4728 15.1698 17.9878 15.3277 18.5429 15.336C19.3509 15.3476 20.0874 15.0407 20.6229 14.5339L19.7859 13.7026ZM27.1435 10.8595C26.9533 10.8595 26.7705 10.8892 26.5997 10.9447L26.2198 9.84371C26.5098 9.75007 26.8203 9.69921 27.1435 9.69921C28.5538 9.69921 29.7303 10.6679 30.0001 11.9548L28.824 12.1867C28.6655 11.4293 27.9733 10.8595 27.1435 10.8595ZM25.2124 14.629L26.0072 13.76C25.6522 13.4561 25.4287 13.0123 25.4287 12.5176C25.4287 12.0235 25.6522 11.5799 26.0068 11.2763L25.2115 10.4072C24.6086 10.9236 24.2287 11.678 24.2287 12.5176C24.2287 13.3583 24.6089 14.1125 25.2124 14.629ZM27.1434 14.1761C27.9725 14.1761 28.6645 13.6068 28.8239 12.8506L29.9997 13.0834C29.7286 14.3689 28.5525 15.3363 27.1434 15.3363C26.82 15.3363 26.5091 15.2853 26.2183 15.1912L26.5991 14.0906C26.7702 14.1459 26.9531 14.1761 27.1434 14.1761Z" fill="white"/>
</g>
</g>
</svg>
