<svg width="29" height="30" viewBox="0 0 29 30" fill="none" xmlns="http://www.w3.org/2000/svg">
  <path d="M1.48267 25.8257C0.740722 26.6439 0.80261 27.9088 1.6209 28.6507C2.43918 29.3926 3.704 29.3308 4.44594 28.5125L1.48267 25.8257ZM27.7828 1.90225C27.7288 0.799005 26.7907 -0.0515941 25.6874 0.00238857L7.70896 0.882088C6.60571 0.93607 5.75511 1.87419 5.80909 2.97744C5.86307 4.08069 6.80119 4.93129 7.90444 4.87731L23.8853 4.09535L24.6673 20.0762C24.7213 21.1795 25.6594 22.0301 26.7626 21.9761C27.8659 21.9221 28.7165 20.984 28.6625 19.8807L27.7828 1.90225ZM2.96431 27.1691L4.44594 28.5125L27.2668 3.34341L25.7852 2L24.3036 0.656591L1.48267 25.8257L2.96431 27.1691Z" fill="black"/>
</svg>
