<svg width="40" height="22" viewBox="0 0 40 22" fill="none" xmlns="http://www.w3.org/2000/svg">
<path d="M8.70214 10.4021C11.3363 10.4021 13.4718 8.26664 13.4718 5.63244C13.4718 2.99823 11.3363 0.862793 8.70214 0.862793C6.06794 0.862793 3.9325 2.99823 3.9325 5.63244C3.9325 8.26664 6.06794 10.4021 8.70214 10.4021Z" fill="#1B655A"/>
<path d="M17.4043 20.785C17.4036 21.0085 17.3145 21.2227 17.1565 21.3808C16.9984 21.5388 16.7842 21.6279 16.5607 21.6286H0.843608C0.620069 21.6279 0.405872 21.5388 0.247805 21.3808C0.0897391 21.2227 0.000650572 21.0085 0 20.785C0 18.477 0.91683 16.2636 2.5488 14.6316C4.18076 12.9997 6.39419 12.0828 8.70214 12.0828C11.0101 12.0828 13.2235 12.9997 14.8555 14.6316C16.4874 16.2636 17.4043 18.477 17.4043 20.785Z" fill="#1B655A"/>
<path d="M31.2979 10.4021C33.9321 10.4021 36.0675 8.26664 36.0675 5.63244C36.0675 2.99823 33.9321 0.862793 31.2979 0.862793C28.6637 0.862793 26.5282 2.99823 26.5282 5.63244C26.5282 8.26664 28.6637 10.4021 31.2979 10.4021Z" fill="#1B655A"/>
<path d="M40 20.785C39.9994 21.0085 39.9103 21.2227 39.7522 21.3808C39.5941 21.5388 39.3799 21.6279 39.1564 21.6286H23.4393C23.2158 21.6279 23.0016 21.5388 22.8435 21.3808C22.6855 21.2227 22.5964 21.0085 22.5957 20.785C22.5957 18.477 23.5126 16.2636 25.1445 14.6316C26.7765 12.9997 28.9899 12.0828 31.2979 12.0828C33.6058 12.0828 35.8192 12.9997 37.4512 14.6316C39.0832 16.2636 40 18.477 40 20.785Z" fill="#1B655A"/>
</svg>
