<svg width="33" height="23" viewBox="0 0 33 23" fill="none" xmlns="http://www.w3.org/2000/svg">
<g clip-path="url(#clip0_62_74)">
<path d="M29.1176 0H3.88235C1.73819 0 0 1.71624 0 3.83333V19.1667C0 21.2838 1.73819 23 3.88235 23H29.1176C31.2618 23 33 21.2838 33 19.1667V3.83333C33 1.71624 31.2618 0 29.1176 0Z" fill="#1F72CD"/>
<path fill-rule="evenodd" clip-rule="evenodd" d="M5.99932 7.66669L2.91177 14.6114H6.60801L7.06623 13.5042H8.11363L8.57186 14.6114H12.6404V13.7664L13.0029 14.6114H15.1074L15.4699 13.7485V14.6114H23.9314L24.9602 13.5329L25.9236 14.6114L30.2696 14.6204L27.1723 11.1585L30.2696 7.66669H25.991L24.9895 8.72529L24.0564 7.66669H14.8516L14.0611 9.4592L13.2521 7.66669H9.56363V8.48305L9.15332 7.66669H5.99932ZM6.71455 8.65263H8.51626L10.5643 13.362V8.65263H12.538L14.1197 12.0292L15.5776 8.65263H17.5415V13.636H16.3465L16.3368 9.73103L14.5946 13.636H13.5256L11.7737 9.73103V13.636H9.31548L8.84943 12.5187H6.33155L5.86647 13.635H4.54934L6.71455 8.65263ZM23.4936 8.65263H18.6346V13.6331H23.4184L24.9602 11.9824L26.4463 13.6331H27.9998L25.7419 11.1572L27.9998 8.65263H26.5138L24.9797 10.2843L23.4936 8.65263ZM7.59097 9.49585L6.76143 11.486H8.41954L7.59097 9.49585ZM19.8346 10.5945V9.68484L22.8664 9.68398L24.1893 11.1388L22.8078 12.6016H19.8346V11.6085H22.4853V10.5945H19.8346Z" fill="white"/>
</g>
<defs>
<clipPath id="clip0_62_74">
<rect width="33" height="23" fill="white"/>
</clipPath>
</defs>
</svg>
