<svg width="33" height="23" viewBox="0 0 33 23" fill="none" xmlns="http://www.w3.org/2000/svg">
<rect x="0.5" y="0.5" width="32" height="22" rx="3.5" fill="white" stroke="#D9D9D9"/>
<path d="M21.8162 16.5353C21.4497 16.5361 21.0865 16.4644 20.7478 16.3241C20.4091 16.1838 20.1015 15.978 19.8428 15.7183L16.9926 12.8681C16.8918 12.7722 16.7579 12.7188 16.6187 12.7188C16.4795 12.7188 16.3457 12.7722 16.2448 12.8681L13.3837 15.7291C13.1251 15.9889 12.8175 16.1949 12.4787 16.3352C12.14 16.4754 11.7769 16.5471 11.4103 16.5461H10.8484L14.4586 20.1564C15.5852 21.2829 17.4134 21.2829 18.5398 20.1564L22.1596 16.5353H21.8162ZM11.4103 6.45374C12.1568 6.45374 12.8571 6.74419 13.3837 7.2708L16.2448 10.1319C16.2939 10.1811 16.3523 10.2202 16.4166 10.2468C16.4809 10.2735 16.5498 10.2872 16.6194 10.2872C16.689 10.2872 16.7579 10.2735 16.8221 10.2468C16.8864 10.2202 16.9448 10.1811 16.994 10.1319L19.8442 7.28166C20.1027 7.02199 20.41 6.8161 20.7485 6.67586C21.087 6.53562 21.4499 6.46382 21.8162 6.46459H22.1596L18.5398 2.84484C17.9985 2.30388 17.2646 2 16.4992 2C15.734 2 15 2.30388 14.4586 2.84484L10.8484 6.45509L11.4103 6.45374Z" fill="#4BB0A7"/>
<path d="M25.1551 9.45857L22.9673 7.2707C22.9181 7.29087 22.8656 7.30146 22.8125 7.30192H21.8177C21.3033 7.30192 20.7997 7.51093 20.4373 7.87468L17.5871 10.7249C17.4604 10.8523 17.3097 10.9534 17.1438 11.0224C16.9778 11.0914 16.7999 11.1269 16.6201 11.1269C16.4404 11.1269 16.2624 11.0914 16.0965 11.0224C15.9305 10.9534 15.7798 10.8523 15.6531 10.7249L12.7921 7.86245C12.4249 7.49689 11.9284 7.29106 11.4103 7.2897H10.1888C10.1382 7.2893 10.0881 7.27964 10.0409 7.2612L7.84488 9.45857C6.71837 10.5851 6.71837 12.4133 7.84488 13.5411L10.0409 15.7372C10.0875 15.7184 10.1372 15.7082 10.1875 15.7073H11.4103C11.9261 15.7073 12.4283 15.4997 12.7921 15.1359L15.6517 12.2735C15.9126 12.0251 16.2591 11.8865 16.6194 11.8865C16.9797 11.8865 17.3262 12.0251 17.5871 12.2735L20.4373 15.1237C20.7997 15.4874 21.3033 15.6951 21.8177 15.6951H22.8125C22.8668 15.6951 22.9198 15.7087 22.9673 15.7277L25.1551 13.5398C26.2816 12.4133 26.2816 10.5851 25.1551 9.45857Z" fill="#4BB0A7"/>
</svg>
