<svg width="827" height="501" viewBox="0 0 827 501" fill="none" xmlns="http://www.w3.org/2000/svg">
<g clip-path="url(#clip0_72_5)">
<mask id="mask0_72_5" style="mask-type:luminance" maskUnits="userSpaceOnUse" x="0" y="0" width="827" height="501">
<path d="M-6.10352e-05 0H826.731V500.964H-6.10352e-05V0Z" fill="white"/>
</mask>
<g mask="url(#mask0_72_5)">
<path d="M169.961 75.91C164.43 73.1685 157.262 76.3631 153.949 83.0455C152.056 86.8646 151.838 90.9927 153.026 94.3439L152.951 94.496L131.216 133.188L92.3222 112.739C85.0308 108.247 76.2471 107.037 71.169 113.933C64.8766 122.478 68.1949 134.657 77.9522 138.828L128.703 160.526C135.914 163.609 144.257 160.255 147.328 153.04L165.543 100.549C168.929 99.4651 172.083 96.7924 173.976 92.9734C177.289 86.291 175.491 78.6515 169.961 75.91Z" fill="#E8989B"/>
<path d="M76.2565 101.157L121.073 123.458L104.091 156.371L58.9778 129.718" fill="#1B655A"/>
<path d="M125.357 461.898H142.163V484.048H125.357V461.898Z" fill="#E8989B"/>
<path d="M128.225 499.336H163.949C167.002 499.336 170.071 498.636 172.822 497.314L179.408 494.148C180.77 493.493 181.65 492.094 181.65 490.583C181.65 488.811 180.457 487.244 178.749 486.771L165.163 483.012L141.919 470.794L141.902 470.882C141.467 473.084 140.794 476.41 140.708 476.612C138.324 479.342 135.876 480.6 133.43 480.353C129.164 479.92 126.328 474.994 126.3 474.944L126.278 474.906L126.235 474.911C125.236 475.014 124.497 475.417 124.039 476.108C123.066 477.576 123.659 479.835 123.757 480.176C122.591 481.317 122.068 487.684 122.028 488.198C120.343 489.985 119.542 491.702 119.648 493.302C119.741 494.701 120.517 496.001 121.954 497.164C123.684 498.564 125.911 499.336 128.225 499.336Z" fill="#090814"/>
<path d="M14.5161 451.796L30.653 456.49L24.4657 477.759L8.32886 473.064L14.5161 451.796Z" fill="#E8989B"/>
<path d="M6.81283 488.544L41.1143 498.523C44.0461 499.376 47.1877 499.562 50.1995 499.06L57.4074 497.86C58.8977 497.612 60.1334 496.514 60.5554 495.063C61.0503 493.362 60.343 491.524 58.8353 490.593L46.8395 483.188L27.9338 464.964L27.8926 465.044C26.8602 467.036 25.2845 470.042 25.1459 470.212C22.0944 472.168 19.3918 472.692 17.1127 471.771C13.1374 470.164 11.7903 464.642 11.7772 464.586L11.7671 464.544L11.7241 464.536C10.736 464.356 9.91398 464.537 9.28073 465.072C7.93647 466.209 7.87528 468.545 7.87387 468.9C6.4363 469.669 4.1554 475.637 3.97299 476.119C1.85604 477.364 0.6075 478.789 0.26236 480.355C-0.0394399 481.725 0.342628 483.189 1.39785 484.708C2.66739 486.535 4.59047 487.898 6.81283 488.544Z" fill="#090814"/>
<path d="M62.3735 63.8242C62.3735 48.7349 74.6058 36.5026 89.6951 36.5026C104.784 36.5026 117.017 48.7349 117.017 63.8242C117.017 76.0618 108.971 86.4187 97.8806 89.897L92.5989 124.803L65.6733 102.365C65.6733 102.365 71.49 94.9559 74.6094 86.6017C67.2366 81.7089 62.3735 73.3361 62.3735 63.8242Z" fill="#E8989B"/>
<path d="M51.5929 198.672L47.6492 143.457C47.3071 138.668 47.9122 133.859 49.4304 129.305L61.1176 94.2445L95.5438 105.302L110.07 138.535L117.982 153.039C121.583 159.642 120.404 167.829 115.086 173.147L110.07 178.163L117.063 203.805L116.327 203.778L117.318 203.905C117.318 203.905 164.053 344.522 162.38 464.107H102.386L98.8243 325.288L88.403 469.495L9.34473 464.943L51.5929 198.672Z" fill="#1B655A"/>
<path d="M53.6012 99.7219C53.6012 99.7219 54.877 109.402 66.6975 109.718C82.6828 110.145 90.6754 110.359 90.6754 110.359C90.6754 110.359 70.4058 61.0302 78.7404 66.5875C87.0751 72.1447 109.3 48.8471 109.3 48.8471L115.858 61.1465C115.858 61.1465 131.526 55.473 114.162 41.5799C114.162 41.5799 93.4449 25.5628 71.4509 35.1811C49.4569 44.7994 53.6012 99.7219 53.6012 99.7219Z" fill="#090814"/>
<path d="M150.567 209.557C150.885 203.392 145.106 198.083 137.657 197.699C133.4 197.479 129.525 198.919 126.922 201.341L126.752 201.332L82.6097 196.76L85.9214 152.943C87.1465 144.467 84.7668 135.926 76.4209 134.006C66.0794 131.627 56.2221 139.511 56.2707 150.122L56.524 205.316C56.56 213.158 62.9526 219.482 70.794 219.433L126.201 215.292C128.541 217.969 132.247 219.801 136.504 220.021C143.952 220.406 150.248 215.721 150.567 209.557Z" fill="#E8989B"/>
<path d="M90.1666 133.598L87.5089 183.586L50.5576 181.08L57.0922 129.09" fill="#1B655A"/>
<path d="M826.731 499.575C826.731 500.255 826.187 500.812 825.493 500.812H1.23761C0.55757 500.812 0 500.268 0 499.575C0 498.881 0.54395 498.337 1.23761 498.337H825.493C826.173 498.337 826.731 498.881 826.731 499.575Z" fill="#DADADA"/>
<path d="M168.336 80H355.663C360.82 80 365 84.7011 365 90.4999C365 96.2989 360.82 101 355.663 101H168.336C163.18 101 159 96.299 159 90.4999C159 84.7011 163.18 80 168.336 80Z" fill="#EF7445"/>
<path d="M168.638 166H320.362C325.685 166 330 170.701 330 176.5C330 182.299 325.685 187 320.362 187H168.638C163.315 187 159 182.299 159 176.5C159 170.701 163.315 166 168.638 166Z" fill="#EF7445"/>
<path d="M200.822 209H169.54C163.719 209 159 213.72 159 219.541C159 225.363 163.719 230.082 169.54 230.082H200.822C206.644 230.082 211.363 225.363 211.363 219.541C211.363 213.72 206.644 209 200.822 209Z" fill="#EF7445"/>
<path d="M475.004 120.481H632.774C638.596 120.481 643.315 125.2 643.315 131.022C643.315 136.843 638.596 141.562 632.774 141.562H475.004C469.182 141.562 464.463 136.843 464.463 131.022C464.463 125.2 469.182 120.481 475.004 120.481Z" fill="#CACACB"/>
<path d="M632.774 174.884H586.531C580.71 174.884 575.991 179.604 575.991 185.425C575.991 191.247 580.71 195.966 586.531 195.966H632.774C638.596 195.966 643.315 191.247 643.315 185.425C643.315 179.604 638.596 174.884 632.774 174.884Z" fill="#CACACB"/>
<path d="M168.944 122H297.055C301.996 122 306 126.701 306 132.501C306 138.299 301.996 143 297.055 143H168.944C164.004 143 160 138.299 160 132.501C160 126.701 164.004 122 168.944 122Z" fill="#EF7445"/>
<path d="M814.612 445.426L800.662 455.71L790.378 441.76L804.328 431.476L814.612 445.426Z" fill="#E8989B"/>
<path d="M825.462 454.231C825.943 452.385 825.792 450.832 825.013 449.614C824.122 448.22 822.406 447.285 819.914 446.834C819.566 446.432 815.236 441.466 813.57 441.233C813.443 440.89 812.553 438.651 810.847 438.029C810.044 437.735 809.184 437.853 808.291 438.379L808.253 438.402L808.258 438.446C808.265 438.505 808.925 444.329 805.649 447.298C803.771 449.001 800.968 449.455 797.319 448.647C797.124 448.532 794.53 446.183 792.822 444.622L792.754 444.56L780.937 468.924L771.96 480.359C770.831 481.796 770.801 483.827 771.885 485.298C772.809 486.552 774.396 487.175 775.927 486.885L783.33 485.482C786.424 484.896 789.399 483.599 791.933 481.731L821.585 459.87C823.507 458.454 824.883 456.451 825.462 454.231Z" fill="#2F2E41"/>
<path d="M656.245 485.199H638.915V467.869H656.245V485.199Z" fill="#E8989B"/>
<path d="M659.754 498.725C661.237 497.525 662.037 496.185 662.132 494.742C662.242 493.092 661.416 491.321 659.678 489.479C659.637 488.949 659.097 482.382 657.896 481.206C657.996 480.855 658.608 478.525 657.605 477.011C657.132 476.299 656.37 475.883 655.34 475.777L655.295 475.772L655.273 475.811C655.244 475.862 652.319 480.942 647.92 481.388C645.398 481.644 642.873 480.346 640.415 477.53C640.327 477.322 639.632 473.893 639.184 471.622L639.166 471.532L615.196 484.131L601.185 488.008C599.424 488.495 598.194 490.111 598.194 491.938C598.194 493.496 599.102 494.939 600.506 495.614L607.297 498.879C610.135 500.243 613.3 500.964 616.448 500.964H653.287C655.674 500.964 657.971 500.169 659.754 498.725Z" fill="#2F2E41"/>
<path d="M744.525 192.786H661.465L633.778 470.088H661.465L704.146 292.151L716.838 342.355L786.737 452.024L814.268 425.216L754.905 331.437L744.525 192.786Z" fill="#2F2E41"/>
<path d="M719.573 36.4292C719.573 20.8685 706.959 8.25427 691.398 8.25427C675.838 8.25427 663.223 20.8685 663.223 36.4292C663.223 49.0488 671.521 59.7293 682.957 63.3162L688.404 99.3124L716.17 76.1735C716.17 76.1735 710.172 68.5331 706.955 59.918C714.558 54.8722 719.573 46.238 719.573 36.4292Z" fill="#E8989B"/>
<path d="M706.174 60.7761C706.174 60.7761 711.546 33.5955 703.782 36.8308C696.017 40.066 698.095 45.5352 698.095 45.5352L690.654 34.5354V21.9179L685.801 16.418L665.095 25.1532C665.095 25.1532 654.095 -7.19923 685.477 3.15353C685.477 3.15353 712.33 -7.84629 720.094 11.2416C738.503 54.2408 706.174 60.7761 706.174 60.7761Z" fill="#090814"/>
<path d="M744.24 194.615L670.608 194.942C664.478 195.251 659.422 191.608 660.003 187.3L673.957 83.905L698.908 70.8273C704.172 68.0683 710.623 69.0889 714.778 73.3383L729.564 88.4599C733.443 92.4261 735.934 96.9817 736.837 101.755L743.74 170.207C744.194 172.607 743.804 175.049 742.607 177.318L739.898 182.449C737.028 187.887 752.46 194.201 744.24 194.615Z" fill="#EF7445"/>
<path d="M654.932 206.92L677.746 191.907L668.98 178.587L646.166 193.6C642.204 192.719 637.558 193.538 633.493 196.213C626.382 200.893 623.757 209.457 627.63 215.343C631.503 221.228 640.407 222.205 647.519 217.526C651.583 214.851 654.174 210.907 654.932 206.92Z" fill="#E8989B"/>
<path d="M723.804 119.331L716.642 176.122L669.948 205.205L648.803 184.44L694.275 159.804L687.442 92.8014" fill="#EF7445"/>
</g>
</g>
<defs>
<clipPath id="clip0_72_5">
<rect width="827" height="501" fill="white"/>
</clipPath>
</defs>
</svg>
