<svg width="150" height="27" viewBox="0 0 150 27" fill="none" xmlns="http://www.w3.org/2000/svg">
<path d="M43.9324 21.741C42.3799 21.741 41.0196 21.4009 39.8516 20.7208C38.6983 20.0407 37.7889 19.1018 37.1236 17.9041C36.473 16.6917 36.1477 15.2944 36.1477 13.7123C36.1477 12.1303 36.473 10.7404 37.1236 9.54277C37.7889 8.33034 38.6983 7.38405 39.8516 6.7039C41.0196 6.02376 42.3799 5.68369 43.9324 5.68369C45.4701 5.68369 46.823 6.02376 47.9911 6.7039C49.1592 7.38405 50.0685 8.33034 50.7191 9.54277C51.3697 10.7404 51.6949 12.1303 51.6949 13.7123C51.6949 15.2944 51.3697 16.6917 50.7191 17.9041C50.0685 19.1018 49.1592 20.0407 47.9911 20.7208C46.823 21.4009 45.4701 21.741 43.9324 21.741ZM43.9324 19.1905C45.411 19.1905 46.5865 18.7025 47.4588 17.7267C48.346 16.7508 48.7895 15.4127 48.7895 13.7123C48.7895 12.012 48.346 10.6739 47.4588 9.69802C46.5865 8.72216 45.411 8.23423 43.9324 8.23423C42.4538 8.23423 41.271 8.72216 40.3838 9.69802C39.4967 10.6739 39.0531 12.012 39.0531 13.7123C39.0531 15.4127 39.4967 16.7508 40.3838 17.7267C41.271 18.7025 42.4538 19.1905 43.9324 19.1905Z" fill="#1C3433"/>
<path d="M53.6914 21.4749V10.4743H56.1975L56.4193 12.3373C56.7594 11.6867 57.2473 11.1692 57.8831 10.7848C58.5337 10.4003 59.2952 10.2081 60.1675 10.2081C61.5278 10.2081 62.585 10.6369 63.3391 11.4945C64.0931 12.3521 64.4702 13.6088 64.4702 15.2649V21.4749H61.6313V15.531C61.6313 14.5847 61.4391 13.8602 61.0547 13.3575C60.6702 12.8548 60.0714 12.6034 59.2582 12.6034C58.4598 12.6034 57.8018 12.8843 57.2843 13.4462C56.7816 14.0081 56.5302 14.7917 56.5302 15.7971V21.4749H53.6914Z" fill="#1C3433"/>
<path d="M78.6796 21.741C77.1123 21.741 75.7668 21.4083 74.6431 20.743C73.5193 20.0628 72.6544 19.1239 72.0482 17.9263C71.442 16.7139 71.1388 15.3166 71.1388 13.7345C71.1388 12.1525 71.442 10.7552 72.0482 9.54277C72.6544 8.33034 73.5193 7.38405 74.6431 6.7039C75.7668 6.02376 77.1123 5.68369 78.6796 5.68369C80.5426 5.68369 82.0655 6.14944 83.2484 7.08094C84.446 7.99766 85.1927 9.29141 85.4884 10.9622H82.3612C82.169 10.1194 81.755 9.46145 81.1192 8.9883C80.4982 8.50037 79.6702 8.25641 78.6352 8.25641C77.201 8.25641 76.0773 8.74434 75.2641 9.7202C74.4509 10.6961 74.0442 12.0342 74.0442 13.7345C74.0442 15.4349 74.4509 16.773 75.2641 17.7489C76.0773 18.7099 77.201 19.1905 78.6352 19.1905C79.6702 19.1905 80.4982 18.9687 81.1192 18.5251C81.755 18.0668 82.169 17.4384 82.3612 16.6399H85.4884C85.1927 18.2368 84.446 19.4862 83.2484 20.3881C82.0655 21.29 80.5426 21.741 78.6796 21.741Z" fill="#1C3433"/>
<path d="M92.7698 21.741C91.7052 21.741 90.7441 21.497 89.8865 21.0091C89.0438 20.5212 88.371 19.8484 87.8683 18.9909C87.3804 18.1185 87.1364 17.1131 87.1364 15.9746C87.1364 14.8361 87.3878 13.838 87.8905 12.9805C88.3932 12.1081 89.0659 11.428 89.9087 10.94C90.7663 10.4521 91.7274 10.2081 92.7919 10.2081C93.8417 10.2081 94.788 10.4521 95.6308 10.94C96.4884 11.428 97.1611 12.1081 97.6491 12.9805C98.1518 13.838 98.4031 14.8361 98.4031 15.9746C98.4031 17.1131 98.1518 18.1185 97.6491 18.9909C97.1611 19.8484 96.4884 20.5212 95.6308 21.0091C94.7732 21.497 93.8196 21.741 92.7698 21.741ZM92.7698 19.2792C93.5091 19.2792 94.1522 19.0056 94.6993 18.4586C95.2464 17.8967 95.5199 17.0687 95.5199 15.9746C95.5199 14.8804 95.2464 14.0598 94.6993 13.5127C94.1522 12.9509 93.5164 12.67 92.7919 12.67C92.0379 12.67 91.3873 12.9509 90.8402 13.5127C90.3079 14.0598 90.0418 14.8804 90.0418 15.9746C90.0418 17.0687 90.3079 17.8967 90.8402 18.4586C91.3873 19.0056 92.0305 19.2792 92.7698 19.2792Z" fill="#1C3433"/>
<path d="M100.498 21.4749V10.4743H103.004L103.226 12.3373C103.566 11.6867 104.054 11.1692 104.69 10.7848C105.34 10.4003 106.102 10.2081 106.974 10.2081C108.334 10.2081 109.391 10.6369 110.146 11.4945C110.9 12.3521 111.277 13.6088 111.277 15.2649V21.4749H108.438V15.531C108.438 14.5847 108.246 13.8602 107.861 13.3575C107.477 12.8548 106.878 12.6034 106.065 12.6034C105.266 12.6034 104.608 12.8843 104.091 13.4462C103.588 14.0081 103.337 14.7917 103.337 15.7971V21.4749H100.498Z" fill="#1C3433"/>
<path d="M118.094 21.741C117.118 21.741 116.261 21.5858 115.522 21.2753C114.782 20.95 114.191 20.5064 113.747 19.9445C113.304 19.3827 113.038 18.7321 112.949 17.9928H115.81C115.899 18.4216 116.135 18.7913 116.52 19.1018C116.919 19.3975 117.429 19.5453 118.05 19.5453C118.671 19.5453 119.122 19.4197 119.403 19.1683C119.699 18.9169 119.846 18.6286 119.846 18.3033C119.846 17.8302 119.639 17.5123 119.225 17.3496C118.811 17.1722 118.235 17.0022 117.495 16.8395C117.022 16.736 116.542 16.6104 116.054 16.4625C115.566 16.3146 115.115 16.1298 114.701 15.908C114.302 15.6715 113.976 15.3757 113.725 15.0209C113.474 14.6512 113.348 14.2003 113.348 13.668C113.348 12.6921 113.732 11.8715 114.501 11.2062C115.285 10.5408 116.379 10.2081 117.784 10.2081C119.085 10.2081 120.12 10.5112 120.889 11.1175C121.672 11.7237 122.138 12.5591 122.286 13.6236H119.602C119.44 12.8104 118.826 12.4038 117.762 12.4038C117.229 12.4038 116.815 12.5073 116.52 12.7143C116.239 12.9213 116.098 13.1801 116.098 13.4906C116.098 13.8159 116.313 14.0746 116.741 14.2668C117.17 14.459 117.739 14.6365 118.449 14.7991C119.218 14.9765 119.92 15.1761 120.556 15.3979C121.207 15.6049 121.724 15.9228 122.109 16.3516C122.493 16.7656 122.685 17.3644 122.685 18.1481C122.7 18.8282 122.523 19.4418 122.153 19.9889C121.783 20.536 121.251 20.9648 120.556 21.2753C119.861 21.5858 119.041 21.741 118.094 21.741Z" fill="#1C3433"/>
<path d="M128.882 21.741C127.507 21.741 126.442 21.3122 125.688 20.4547C124.949 19.5971 124.579 18.3403 124.579 16.6843V10.4743H127.396V16.4181C127.396 17.3644 127.588 18.0889 127.972 18.5916C128.357 19.0944 128.963 19.3457 129.791 19.3457C130.575 19.3457 131.218 19.0648 131.721 18.5029C132.238 17.9411 132.497 17.1574 132.497 16.152V10.4743H135.336V21.4749H132.83L132.608 19.6119C132.268 20.2624 131.772 20.7799 131.122 21.1644C130.486 21.5488 129.739 21.741 128.882 21.741Z" fill="#1C3433"/>
<path d="M137.806 21.4749V5.50626H140.645V21.4749H137.806Z" fill="#1C3433"/>
<path d="M148.004 21.4749C146.851 21.4749 145.927 21.1939 145.232 20.6321C144.537 20.0702 144.189 19.0722 144.189 17.638V12.8474H142.304V10.4743H144.189L144.522 7.52451H147.028V10.4743H150V12.8474H147.028V17.6601C147.028 18.1924 147.139 18.5621 147.361 18.7691C147.597 18.9613 147.997 19.0574 148.558 19.0574H149.933V21.4749H148.004Z" fill="#1C3433"/>
<path d="M14.0369 20.0633C12.9433 20.0633 11.8601 19.8801 10.8338 19.5262C9.84378 19.1849 9.53803 18.0049 10.0636 17.0991C10.5892 16.1934 11.7532 15.9194 12.7772 16.1381C13.1897 16.2262 13.612 16.2712 14.0369 16.2712C17.3644 16.2712 20.0714 13.5642 20.0714 10.2368C20.0714 6.90938 17.3644 4.2022 14.0369 4.2022C13.612 4.2022 13.1897 4.24723 12.7772 4.33535C11.7532 4.55414 10.5892 4.28014 10.0636 3.37442C9.53802 2.46866 9.84375 1.28864 10.8337 0.947206C11.8601 0.593233 12.9433 0.409971 14.0369 0.409971C19.4555 0.409971 23.8637 4.81829 23.8637 10.2368C23.8637 15.6552 19.4555 20.0633 14.0369 20.0633Z" fill="#1C3433"/>
<path d="M6.06412 17.115C6.06412 14.9061 7.85475 13.1156 10.0636 13.1156C12.2725 13.1156 14.0633 14.9061 14.0633 17.115C14.0633 19.3238 12.2725 21.1146 10.0636 21.1146C7.85475 21.1146 6.06412 19.3238 6.06412 17.115Z" fill="#1C3433"/>
<path d="M9.81083 26.9099C4.40123 26.9099 0 22.5088 0 17.0991C0 11.6893 4.40123 7.28826 9.81083 7.28826C12.1107 7.28826 14.3007 8.08527 16.0416 9.51924C16.8498 10.185 16.7258 11.398 15.9183 12.0645C15.1106 12.7311 13.9251 12.5825 13.042 12.0198C12.0878 11.4118 10.9721 11.0805 9.81083 11.0805C6.49219 11.0805 3.79224 13.7804 3.79224 17.0991C3.79224 20.4177 6.49219 23.1177 9.81083 23.1177C10.8445 23.1177 11.8324 22.8621 12.7075 22.3799C13.6247 21.8745 14.8162 21.801 15.5793 22.5182C16.3424 23.2353 16.3876 24.4535 15.5365 25.0636C13.8797 26.2515 11.8717 26.9099 9.81083 26.9099Z" fill="#1C3433"/>
</svg>
