<svg width="61" height="61" viewBox="0 0 61 61" fill="none" xmlns="http://www.w3.org/2000/svg">
<path fill-rule="evenodd" clip-rule="evenodd" d="M30.0106 5.02645C23.2206 5.02645 22.3706 5.05478 19.7039 5.17645C17.0423 5.29813 15.2239 5.72146 13.6339 6.33978C11.9673 6.96646 10.4556 7.94978 9.20559 9.22313C7.93429 10.4717 6.95036 11.9823 6.32226 13.6498C5.70726 15.2398 5.28226 17.0598 5.16059 19.7215C5.04059 22.3865 5.01059 23.2348 5.01059 30.0265C5.01059 36.8182 5.03891 37.6665 5.16059 40.3332C5.28226 42.9947 5.70559 44.8132 6.32391 46.4032C6.95059 48.0697 7.93391 49.5815 9.20726 50.8315C10.4558 52.1027 11.9664 53.0867 13.6339 53.7147C15.2239 54.3315 17.0423 54.7547 19.7039 54.8765C22.3706 54.9982 23.2206 55.0265 30.0106 55.0265C36.8006 55.0265 37.6506 54.9982 40.3173 54.8765C42.9788 54.7547 44.7973 54.3315 46.3873 53.7132C48.0538 53.0865 49.5656 52.1032 50.8156 50.8297C52.0868 49.5812 53.0708 48.0707 53.6988 46.4032C54.3156 44.8132 54.7388 42.9947 54.8606 40.3332C54.9823 37.6665 55.0106 36.8165 55.0106 30.0265C55.0106 23.2365 54.9823 22.3865 54.8606 19.7198C54.7388 17.0581 54.3156 15.2398 53.6973 13.6498C53.0696 11.9816 52.0856 10.4703 50.8138 9.22145C49.5653 7.95015 48.0548 6.96623 46.3873 6.33813C44.7973 5.72313 42.9773 5.29813 40.3156 5.17645C37.6506 5.05645 36.8023 5.02645 30.0106 5.02645ZM30.0106 9.53146C36.6856 9.53146 37.4773 9.55645 40.1138 9.67645C42.5506 9.78813 43.8738 10.1931 44.7556 10.5381C45.9223 10.9898 46.7556 11.5331 47.6306 12.4065C48.5056 13.2815 49.0473 14.1148 49.4988 15.2815C49.8423 16.1631 50.2488 17.4865 50.3606 19.9231C50.4806 22.5598 50.5056 23.3515 50.5056 30.0265C50.5056 36.7015 50.4806 37.4932 50.3606 40.1297C50.2488 42.5665 49.8438 43.8897 49.4988 44.7715C49.0988 45.8575 48.4603 46.8397 47.6306 47.6465C46.8241 48.4765 45.8416 49.115 44.7556 49.5147C43.8738 49.8582 42.5506 50.2647 40.1138 50.3765C37.4773 50.4965 36.6873 50.5215 30.0106 50.5215C23.3339 50.5215 22.5439 50.4965 19.9073 50.3765C17.4706 50.2647 16.1473 49.8597 15.2656 49.5147C14.1797 49.1147 13.1973 48.4762 12.3906 47.6465C11.5609 46.8397 10.9225 45.8572 10.5223 44.7715C10.1789 43.8897 9.77226 42.5665 9.66059 40.1297C9.54059 37.4932 9.51559 36.7015 9.51559 30.0265C9.51559 23.3515 9.54059 22.5598 9.66059 19.9231C9.77226 17.4865 10.1773 16.1631 10.5223 15.2815C10.9739 14.1148 11.5173 13.2815 12.3906 12.4065C13.1972 11.5765 14.1796 10.9381 15.2656 10.5381C16.1473 10.1948 17.4706 9.78813 19.9073 9.67645C22.5439 9.55645 23.3356 9.53146 30.0106 9.53146Z" fill="#1C3433"/>
<path fill-rule="evenodd" clip-rule="evenodd" d="M30.0106 38.3682C28.9151 38.3682 27.8306 38.1525 26.8183 37.7332C25.8063 37.314 24.8868 36.6995 24.1122 35.925C23.3376 35.1502 22.7231 34.2307 22.3039 33.2187C21.8847 32.2067 21.669 31.122 21.669 30.0265C21.669 28.931 21.8847 27.8462 22.3039 26.8342C22.7231 25.8222 23.3376 24.9026 24.1122 24.128C24.8868 23.3534 25.8063 22.739 26.8183 22.3198C27.8306 21.9006 28.9151 21.6848 30.0106 21.6848C32.2231 21.6848 34.3446 22.5636 35.9091 24.128C37.4733 25.6925 38.3523 27.8142 38.3523 30.0265C38.3523 32.2387 37.4733 34.3605 35.9091 35.925C34.3446 37.4892 32.2231 38.3682 30.0106 38.3682ZM30.0106 17.1765C26.6026 17.1765 23.3341 18.5303 20.9243 20.9401C18.5145 23.35 17.1606 26.6185 17.1606 30.0265C17.1606 33.4345 18.5145 36.703 20.9243 39.1127C23.3341 41.5227 26.6026 42.8765 30.0106 42.8765C33.4186 42.8765 36.6871 41.5227 39.0968 39.1127C41.5068 36.703 42.8606 33.4345 42.8606 30.0265C42.8606 26.6185 41.5068 23.35 39.0968 20.9401C36.6871 18.5303 33.4186 17.1765 30.0106 17.1765ZM46.5988 16.9431C46.5988 17.7487 46.2788 18.5213 45.7093 19.091C45.1396 19.6606 44.3671 19.9806 43.5616 19.9806C42.7558 19.9806 41.9833 19.6606 41.4136 19.091C40.8441 18.5213 40.5238 17.7487 40.5238 16.9431C40.5238 16.1375 40.8441 15.3649 41.4136 14.7953C41.9833 14.2257 42.7558 13.9056 43.5616 13.9056C44.3671 13.9056 45.1396 14.2257 45.7093 14.7953C46.2788 15.3649 46.5988 16.1375 46.5988 16.9431Z" fill="#1C3433"/>
</svg>
