<svg width="34" height="24" viewBox="0 0 34 24" fill="none" xmlns="http://www.w3.org/2000/svg">
<g id="Group 145">
<rect id="BASE" x="0.5" y="0.5" width="33" height="23" rx="3.5" fill="white" stroke="#D9D9D9"/>
<path id="DinersClub" fill-rule="evenodd" clip-rule="evenodd" d="M15.8385 19.2998H18.4346C22.487 19.2998 25.7163 16.0848 25.8429 12.1133V12.0503C25.7796 8.01572 22.487 4.73766 18.4346 4.8007H15.5219C11.6594 4.92678 8.6201 8.20484 8.74674 12.1133C8.74674 16.0217 11.9127 19.2368 15.8385 19.2998ZM10.0131 12.0503C10.0131 8.77223 12.7358 6.06152 16.0284 6.06152C19.321 6.06152 22.0438 8.77223 22.0438 12.0503C22.0438 15.3283 19.321 18.039 16.0284 18.039C12.7358 18.039 10.0131 15.3283 10.0131 12.0503ZM16.9782 16.0846V8.07861C19.1944 8.64597 20.5874 10.8524 20.0176 13.0587C19.6376 14.5717 18.4979 15.7064 16.9782 16.0846ZM12.1027 11.0415C11.5328 13.2479 12.8625 15.5173 15.0787 16.0846V8.07861C13.6223 8.45685 12.4826 9.59156 12.1027 11.0415Z" fill="#0079BE"/>
</g>
</svg>
