<svg width="34" height="24" viewBox="0 0 34 24" fill="none" xmlns="http://www.w3.org/2000/svg">
<g id="Group 170">
<rect id="BASE" x="0.5" y="0.5" width="33" height="23" rx="3.5" fill="white" stroke="#D9D9D9"/>
<g id="Group 171">
<g id="g1222">
<path id="path1224" d="M28.9999 11.0564C28.9999 6.83428 23.6835 3.39224 17.1268 3.39224C10.5691 3.39224 5.25456 6.83428 5.25456 11.0564C5.25456 11.1654 5.25366 11.4677 5.25366 11.5058C5.25366 15.9841 9.89908 19.6123 17.125 19.6123C24.3967 19.6123 28.9999 15.9859 28.9999 11.5058V11.0564Z" fill="#28316B"/>
</g>
<g id="g1226">
<path id="path1228" d="M28.5446 11.0516C28.5446 15.0318 23.4348 18.2593 17.1287 18.2593C10.8243 18.2593 5.71362 15.0318 5.71362 11.0516C5.71362 7.07065 10.8243 3.84312 17.1287 3.84312C23.4348 3.84312 28.5446 7.07065 28.5446 11.0516Z" fill="#50B4E9"/>
</g>
<g id="g1230">
<path id="path1232" d="M13.3387 8.77834C13.3324 8.78986 13.2184 8.90687 13.292 8.99906C13.4725 9.22688 14.0294 9.3563 14.5926 9.23219C14.9276 9.15773 15.356 8.82089 15.7719 8.49556C16.2228 8.14187 16.671 7.7873 17.1201 7.64724C17.5961 7.49743 17.9006 7.56126 18.1027 7.62065C18.3237 7.68713 18.5841 7.82985 18.9982 8.13744C19.7796 8.71717 22.9206 11.4226 23.4622 11.8906C23.9005 11.6956 25.8424 10.8694 28.4821 10.2968C28.2531 8.90776 27.3962 7.6366 26.0984 6.59593C24.2894 7.34585 22.0781 7.73766 19.9161 6.69432C19.9054 6.69166 18.735 6.14384 17.58 6.17132C15.8644 6.21032 15.1207 6.94341 14.3339 7.71904L13.3387 8.77834Z" fill="white"/>
</g>
<g id="g1234">
<path id="path1236" d="M23.3353 12.1846C23.2985 12.1527 19.6429 8.99435 18.8139 8.38005C18.3351 8.02547 18.0684 7.93505 17.7881 7.8996C17.6417 7.88187 17.4414 7.90758 17.2995 7.94658C16.9151 8.04941 16.4112 8.38182 15.9639 8.73108C15.5005 9.09629 15.0639 9.43846 14.6589 9.52887C14.1415 9.64322 13.5092 9.5076 13.22 9.31524C13.1032 9.23812 13.0215 9.1477 12.9819 9.05729C12.8751 8.81263 13.0718 8.6185 13.1032 8.58482L14.1128 7.50868C14.2295 7.39344 14.3481 7.27732 14.4693 7.16297C14.1442 7.20552 13.8433 7.28795 13.5496 7.36773C13.184 7.46967 12.8328 7.56541 12.4763 7.56541C12.3281 7.56541 11.5323 7.43776 11.3814 7.39699C10.4688 7.14878 9.66674 6.91033 8.47036 6.35808C7.03595 7.41206 6.07669 8.73019 5.80005 10.1813C6.00573 10.2354 6.33716 10.332 6.47638 10.3621C9.72333 11.0748 10.7338 11.8088 10.9179 11.9621C11.1164 11.7441 11.402 11.6058 11.7218 11.6058C12.082 11.6076 12.4053 11.7849 12.602 12.0597C12.7879 11.9143 13.0439 11.792 13.3754 11.792C13.5254 11.792 13.6816 11.8185 13.8397 11.8717C14.2062 11.9949 14.3948 12.2361 14.4927 12.455C14.6157 12.3992 14.7666 12.3584 14.9445 12.3593C15.1196 12.3593 15.302 12.3983 15.4843 12.4763C16.0825 12.7298 16.1759 13.3113 16.122 13.7483C16.1651 13.743 16.2064 13.7412 16.2513 13.7412C16.96 13.7421 17.5384 14.3103 17.5376 15.0115C17.5376 15.2287 17.481 15.4317 17.384 15.6116C17.5771 15.718 18.0693 15.9609 18.5004 15.9068C18.8462 15.8634 18.9773 15.7472 19.024 15.6816C19.0564 15.6373 19.0905 15.5841 19.0582 15.546L18.1438 14.5417C18.1438 14.5417 17.992 14.4016 18.0414 14.3467C18.0935 14.2917 18.1869 14.3715 18.2534 14.4256C18.7178 14.8103 19.2881 15.3891 19.2881 15.3891C19.2971 15.3962 19.3357 15.4689 19.545 15.5061C19.7264 15.538 20.0471 15.5203 20.2698 15.3404C20.3255 15.2952 20.3821 15.2375 20.4288 15.1799C20.4252 15.1826 20.4216 15.1861 20.418 15.1879C20.6525 14.8918 20.392 14.5922 20.392 14.5922L19.3231 13.4079C19.3231 13.4079 19.1696 13.2679 19.2217 13.2111C19.2684 13.1633 19.3672 13.2368 19.4336 13.2918C19.7722 13.5701 20.251 14.0453 20.709 14.4885C20.7989 14.5523 21.2022 14.7988 21.7357 14.453C22.059 14.243 22.1237 13.9859 22.1156 13.7909C22.0923 13.5338 21.8893 13.3503 21.8893 13.3503L20.4288 11.9019C20.4288 11.9019 20.2743 11.7716 20.3282 11.706C20.3731 11.6501 20.4728 11.7299 20.5393 11.7849C21.0045 12.1687 22.2647 13.3086 22.2647 13.3086C22.2818 13.3211 22.7183 13.6269 23.2545 13.2883C23.4476 13.1668 23.5707 12.9842 23.5805 12.7724C23.5994 12.4027 23.3353 12.1846 23.3353 12.1846Z" fill="white"/>
</g>
<g id="g1238">
<path id="path1240" d="M16.2508 14.0214C16.0245 14.0187 15.7775 14.1517 15.7442 14.1322C15.7263 14.1207 15.7586 14.0311 15.7802 13.9788C15.8008 13.9283 16.099 13.0427 15.3724 12.7343C14.8155 12.4985 14.476 12.7635 14.3592 12.8841C14.3278 12.9151 14.3143 12.9124 14.3107 12.8726C14.2999 12.713 14.2281 12.2813 13.7476 12.1368C13.0604 11.9303 12.6194 12.4027 12.5072 12.5729C12.4578 12.1873 12.1272 11.8877 11.7221 11.8868C11.282 11.8868 10.9246 12.2387 10.9246 12.6731C10.9246 13.1066 11.2811 13.4585 11.7213 13.4585C11.935 13.4594 12.129 13.3752 12.2718 13.2395C12.2763 13.244 12.2781 13.2511 12.2754 13.2661C12.2422 13.4603 12.1811 14.1668 12.9311 14.4548C13.232 14.5701 13.4871 14.4841 13.6991 14.3369C13.7619 14.2935 13.7718 14.3121 13.7628 14.3706C13.7359 14.5524 13.77 14.9415 14.3233 15.1622C14.7436 15.3315 14.9924 15.1587 15.155 15.0098C15.226 14.9459 15.2457 14.9575 15.2502 15.055C15.2691 15.5815 15.7119 15.9981 16.2499 15.999C16.8032 15.999 17.2523 15.5576 17.2523 15.0115C17.2523 14.4646 16.8041 14.0276 16.2508 14.0214Z" fill="white"/>
</g>
<g id="g1242">
<path id="path1244" d="M16.2508 15.9287C15.7487 15.9287 15.3409 15.5431 15.3229 15.0538C15.3211 15.0113 15.3166 14.8996 15.2214 14.8996C15.1819 14.8996 15.1469 14.9226 15.1083 14.9572C14.9969 15.0591 14.8568 15.1611 14.652 15.1611C14.5586 15.1611 14.458 15.1398 14.3511 15.0972C13.8212 14.8854 13.814 14.5255 13.8355 14.381C13.8409 14.3429 13.8427 14.303 13.8167 14.272L13.7834 14.2436H13.7511C13.7242 14.2436 13.6954 14.2534 13.6586 14.28C13.505 14.3863 13.3577 14.4369 13.2086 14.4369C13.126 14.4369 13.0424 14.4218 12.9571 14.389C12.2601 14.1213 12.3149 13.4715 12.349 13.2756C12.3535 13.2357 12.3436 13.2056 12.3185 13.1843L12.2691 13.1435L12.2233 13.1879C12.0868 13.3182 11.9089 13.3882 11.7221 13.3882C11.3233 13.3882 10.9973 13.0673 10.9973 12.6728C10.9973 12.2784 11.3242 11.9584 11.723 11.9584C12.0841 11.9584 12.3922 12.2261 12.438 12.5833L12.4631 12.7748L12.5691 12.6126C12.5817 12.5931 12.8745 12.156 13.4134 12.156C13.5149 12.156 13.6209 12.1738 13.7269 12.2057C14.1571 12.3342 14.2289 12.718 14.2406 12.8794C14.2487 12.9725 14.3152 12.9769 14.3286 12.9769C14.3646 12.9769 14.3933 12.9538 14.4122 12.9334C14.493 12.8492 14.6691 12.711 14.9457 12.711C15.0723 12.7118 15.2062 12.7402 15.3445 12.7996C16.0271 13.0886 15.7172 13.9449 15.7136 13.9529C15.6553 14.0947 15.6535 14.1576 15.7083 14.1931L15.7352 14.2064H15.755C15.7855 14.2064 15.8232 14.1931 15.887 14.1718C15.9795 14.1399 16.1196 14.0929 16.2508 14.0929H16.2517C16.7645 14.0991 17.1822 14.5104 17.1822 15.0121C17.1813 15.5174 16.7636 15.9287 16.2508 15.9287ZM23.4767 11.8077C22.3512 10.837 19.7483 8.6032 19.0423 8.08108C18.6399 7.78235 18.3651 7.62368 18.1244 7.55365C18.0157 7.52174 17.8657 7.48451 17.6726 7.48451C17.4938 7.48451 17.3016 7.51642 17.0995 7.57936C16.6433 7.72119 16.1906 8.07754 15.7505 8.42148L15.7289 8.4392C15.3193 8.76009 14.8972 9.09251 14.5774 9.16254C14.4373 9.19356 14.2936 9.20952 14.1508 9.20952C13.7924 9.20952 13.4709 9.10758 13.3505 8.95511C13.3299 8.93029 13.3433 8.8904 13.3891 8.83101L13.3954 8.82303L14.3861 7.76906C15.1622 7.00406 15.8951 6.27984 17.5828 6.24172C17.6106 6.24084 17.6394 6.23995 17.6672 6.23995C18.7172 6.24172 19.7672 6.70533 19.8848 6.75852C20.8701 7.23365 21.886 7.47476 22.9081 7.47565C23.9734 7.47565 25.0718 7.21503 26.2269 6.69026C26.0976 6.583 25.9628 6.47929 25.8254 6.37646C24.8105 6.81082 23.844 7.03065 22.9108 7.03065C21.9578 7.02888 21.0058 6.80284 20.0824 6.35785C20.033 6.33568 18.8744 5.79496 17.6672 5.79496C17.6358 5.79496 17.6043 5.79496 17.5729 5.79584C16.1556 5.82864 15.3571 6.32593 14.8199 6.76029C14.2972 6.77359 13.8472 6.89769 13.4466 7.00849C13.0882 7.106 12.7802 7.1911 12.4793 7.1911C12.3544 7.1911 12.1317 7.18046 12.1119 7.17957C11.7652 7.16894 10.02 6.74699 8.63144 6.22754C8.48953 6.32682 8.35301 6.42876 8.22097 6.53336C9.67154 7.1193 11.4365 7.57404 11.9934 7.60861C12.1478 7.62013 12.3131 7.63698 12.4784 7.63698C12.8466 7.63698 13.214 7.53504 13.5706 7.43753C13.7807 7.37814 14.0125 7.3152 14.2559 7.26822C14.1912 7.33204 14.1265 7.39587 14.061 7.46058L13.0541 8.53494C12.976 8.61383 12.8026 8.8248 12.9167 9.08453C12.9616 9.18913 13.0523 9.2893 13.1817 9.3744C13.4215 9.53396 13.8508 9.64122 14.2496 9.64122C14.4005 9.6421 14.5451 9.62703 14.6762 9.59689C15.0984 9.5047 15.5403 9.15633 16.0091 8.78846C16.3828 8.49505 16.9136 8.12363 17.3196 8.01371C17.4337 7.98357 17.5738 7.96496 17.6861 7.96496C17.7193 7.96585 17.7507 7.96585 17.7795 7.96939C18.048 8.00396 18.3085 8.09349 18.772 8.43743C19.5983 9.04996 23.2548 12.2075 23.2907 12.2385C23.2934 12.2403 23.5261 12.4379 23.5099 12.7695C23.5009 12.953 23.3976 13.1161 23.218 13.2295C23.0617 13.327 22.9 13.3767 22.7384 13.3767C22.4932 13.3767 22.3252 13.2632 22.3144 13.2552C22.3 13.2446 21.048 12.1108 20.5863 11.7306C20.5136 11.6703 20.4426 11.6162 20.3707 11.6162C20.3312 11.6162 20.2971 11.6322 20.2737 11.6605C20.201 11.7492 20.2827 11.8715 20.3788 11.9522L21.8429 13.4024C21.8447 13.4041 22.0252 13.5717 22.0441 13.7951C22.0557 14.0353 21.939 14.2365 21.6965 14.3934C21.524 14.506 21.3498 14.5627 21.1782 14.5627C20.9528 14.5627 20.7965 14.4617 20.7606 14.4369L20.5513 14.2339C20.1669 13.8607 19.7708 13.4751 19.4815 13.2366C19.4106 13.1781 19.3351 13.1249 19.2633 13.1249C19.2273 13.1249 19.195 13.1391 19.1708 13.1639C19.1375 13.2003 19.1142 13.265 19.1968 13.3731C19.2309 13.4183 19.2705 13.4547 19.2705 13.4547L20.3393 14.6381C20.3483 14.6496 20.5585 14.8969 20.3627 15.1433L20.3249 15.1912C20.2926 15.2258 20.2585 15.2568 20.2261 15.2852C20.0438 15.4332 19.8004 15.4483 19.7043 15.4483C19.6522 15.4483 19.6019 15.4438 19.5597 15.4359C19.4537 15.4181 19.3827 15.3889 19.3495 15.349L19.3369 15.3348C19.2776 15.2763 18.7396 14.7329 18.2941 14.3668C18.2358 14.319 18.1621 14.2569 18.0867 14.2569C18.0489 14.2569 18.0157 14.272 17.9905 14.2995C17.9016 14.3952 18.0337 14.5379 18.0902 14.5893L19.0019 15.5804C19.001 15.5892 18.9884 15.6105 18.966 15.6415C18.9336 15.6867 18.8232 15.7958 18.4935 15.8365C18.454 15.841 18.4127 15.8427 18.3723 15.8427C18.031 15.8427 17.6681 15.6796 17.4804 15.5812C17.5666 15.404 17.6106 15.2089 17.6106 15.0121C17.6106 14.272 17.0016 13.6701 16.2517 13.6701C16.2355 13.6701 16.2193 13.6701 16.2023 13.671C16.2283 13.3332 16.1798 12.6932 15.5142 12.4122C15.3229 12.3298 15.1316 12.289 14.9457 12.289C14.8011 12.289 14.661 12.3129 14.5289 12.3635C14.3924 12.0984 14.1634 11.9061 13.8643 11.8059C13.699 11.7492 13.5355 11.7208 13.3766 11.7208C13.099 11.7208 12.8448 11.8006 12.6176 11.9601C12.3993 11.6933 12.0697 11.5346 11.723 11.5346C11.4203 11.5346 11.1284 11.6543 10.9119 11.8662C10.629 11.6517 9.50358 10.9469 6.49376 10.2724C6.34826 10.2404 6.01413 10.1456 5.80844 10.0862C5.77431 10.2467 5.74916 10.4089 5.7312 10.5729C5.7312 10.5729 6.28628 10.7041 6.39586 10.7289C9.47035 11.4035 10.4871 12.1037 10.6587 12.2358C10.6003 12.3741 10.5706 12.523 10.5697 12.6728C10.5697 13.3004 11.0862 13.8101 11.7221 13.811C11.7931 13.811 11.8631 13.8048 11.9332 13.7924C12.0293 14.2534 12.3347 14.6035 12.8026 14.7826C12.9382 14.8349 13.0775 14.8615 13.2131 14.8615C13.3011 14.8615 13.3882 14.8508 13.4754 14.8295C13.5616 15.0449 13.7565 15.3153 14.1903 15.4891C14.343 15.5493 14.4948 15.5804 14.643 15.5804C14.7643 15.5804 14.8828 15.56 14.9951 15.5192C15.2035 16.02 15.6984 16.3516 16.2508 16.3516C16.6163 16.3524 16.9675 16.2053 17.2244 15.9447C17.4436 16.0644 17.907 16.2815 18.3741 16.2824C18.4351 16.2824 18.4917 16.2798 18.5492 16.2727C19.0136 16.2142 19.2291 16.0351 19.3288 15.8959C19.3468 15.8711 19.363 15.8445 19.3764 15.8188C19.4869 15.8498 19.6064 15.8747 19.7456 15.8747C19.9989 15.8747 20.2423 15.7904 20.4893 15.6132C20.73 15.4403 20.9025 15.1939 20.9267 14.9838C20.9276 14.9811 20.9285 14.9776 20.9285 14.974C21.0102 14.9909 21.0947 14.9989 21.1764 14.9989C21.4387 14.9989 21.6956 14.9191 21.9408 14.7604C22.4141 14.4537 22.4967 14.0539 22.4896 13.7915C22.5722 13.8075 22.6566 13.8172 22.7411 13.8172C22.9863 13.8172 23.227 13.7445 23.456 13.6001C23.7506 13.4148 23.9267 13.1311 23.9536 12.8014C23.9725 12.5771 23.9159 12.3511 23.7955 12.156C24.5895 11.8183 26.403 11.1659 28.5397 10.6908C28.5263 10.5268 28.5029 10.3654 28.4724 10.205C25.8883 10.7714 23.9599 11.594 23.4767 11.8077Z" fill="#28316B"/>
</g>
</g>
</g>
</svg>
