<svg width="508" height="329" viewBox="0 0 508 329" fill="none" xmlns="http://www.w3.org/2000/svg">
<mask id="mask0_107_13878" style="mask-type:alpha" maskUnits="userSpaceOnUse" x="0" y="0" width="508" height="329">
<rect width="508" height="329" fill="#1C3433"/>
</mask>
<g mask="url(#mask0_107_13878)">
<path opacity="0.3" d="M-255.62 -191.532C-255.62 -191.532 -238.507 -68.3908 -130.04 -53.8651C-21.5733 -39.3393 -65.0122 -13.6928 54.4584 2.30659C173.929 18.306 184.796 80.5437 260.252 90.6486C335.707 100.753 284.432 196.859 390.541 211.069C496.65 225.279 447.492 309.512 501.208 316.706C584.523 327.863 557.605 307.811 612.624 315.179C666.34 322.373 740.061 367.285 740.061 367.285M-229.076 -252.335C-229.076 -252.335 -211.963 -129.194 -103.496 -114.668C4.97051 -100.142 -38.4684 -74.4959 81.0022 -58.4965C200.473 -42.4971 211.34 19.7406 286.795 29.8455C362.25 39.9504 310.976 136.056 417.085 150.266C523.193 164.476 474.036 248.709 527.752 255.903C611.067 267.06 584.149 247.008 639.168 254.376C692.884 261.57 766.605 306.482 766.605 306.482" stroke="#F4F1EB" stroke-width="11.67"/>
</g>
</svg>
