<svg width="827" height="501" viewBox="0 0 827 501" fill="none" xmlns="http://www.w3.org/2000/svg">
<mask id="mask0_81_2" style="mask-type:luminance" maskUnits="userSpaceOnUse" x="0" y="0" width="827" height="501">
<path d="M826.73 0H0V500.96H826.73V0Z" fill="white"/>
</mask>
<g mask="url(#mask0_81_2)">
<path d="M620.377 501H1.62397C1.19336 501 0.780255 500.895 0.475743 500.707C0.17109 500.52 0 500.265 0 500C0 499.735 0.17109 499.48 0.475743 499.293C0.780255 499.105 1.19336 499 1.62397 499H620.377C620.807 499 621.22 499.105 621.525 499.293C621.829 499.48 622 499.735 622 500C622 500.265 621.829 500.52 621.525 500.707C621.22 500.895 620.807 501 620.377 501Z" fill="#DADADA"/>
<path d="M622 0H0V331H622V0Z" fill="#DADADA"/>
<path d="M622 61.9577V58.7117H500.921V0H497.69V58.7117H376.61V0H373.378V58.7117H252.3V0H249.068V58.7117H127.989V0H124.757V58.7117H0V61.9577H124.757V126.819H0V130.065H124.757V194.927H0V198.173H124.757V263.022H0V266.268H124.757V331H127.989V266.268H249.068V331H252.3V266.268H373.378V331H376.61V266.268H497.69V331H500.921V266.268H622V263.022H500.921V198.173H622V194.927H500.921V130.065H622V126.819H500.921V61.9578L622 61.9577ZM249.068 263.022H127.989V198.173H249.068V263.022ZM249.068 194.927H127.989V130.065H249.068V194.927ZM249.068 126.819H127.989V61.9578H249.068V126.819ZM373.378 263.022H252.3V198.173H373.378V263.022ZM373.378 194.927H252.3V130.065H373.378V194.927ZM373.378 126.819H252.3V61.9578H373.378V126.819ZM497.69 263.022H376.61V198.173H497.69V263.022ZM497.69 194.927H376.61V130.065H497.69V194.927ZM497.69 126.819H376.61V61.9579H497.69V126.819Z" fill="white"/>
<path d="M195 80H155V120H195V80Z" fill="#A6A5A5"/>
<path d="M582 212H542V252H582V212Z" fill="#EF7445"/>
<path d="M86 277H46V317H86V277Z" fill="#EF7445"/>
<path d="M217 72H177V112H217V72Z" fill="#EF7445"/>
<path d="M387 158.782L435.648 115L450 122.183L391.653 184L387 158.782Z" fill="#FFB6B6"/>
<path d="M442.5 130C448.851 130 454 124.851 454 118.5C454 112.149 448.851 107 442.5 107C436.149 107 431 112.149 431 118.5C431 124.851 436.149 130 442.5 130Z" fill="#FFB6B6"/>
<path d="M340.999 487H329.48L324 444L341 444.001L340.999 487Z" fill="#FFB6B6"/>
<path d="M342.999 499L307 498.998V498.495C307 494.386 308.477 490.444 311.104 487.539C313.732 484.633 317.296 483 321.012 483L343 483.001L342.999 499Z" fill="#2F2E41"/>
<path d="M297.999 487H287.157L282 444L298 444.001L297.999 487Z" fill="#FFB6B6"/>
<path d="M301.999 499L265 498.998V498.495C265 494.386 266.518 490.444 269.218 487.539C271.919 484.633 275.582 483 279.401 483L302 483.001L301.999 499Z" fill="#2F2E41"/>
<path d="M351.412 231.016C351.412 231.016 380.461 228.675 371.165 280.181C361.87 331.688 342.615 472.583 342.615 472.583L325.158 475L314.845 287.049L307.043 475L284.841 472.583L263.103 270.817C263.103 270.817 256.124 254.594 263.099 243.39C270.075 232.187 351.412 231.016 351.412 231.016Z" fill="#2F2E41"/>
<path d="M332 104.389L340.177 100.028C340.177 100.028 360.321 98.317 368.543 121.876L390.346 154.661L425.686 124.169L441 134.724L396.461 187.644L377.942 190L337.89 138.399L332 104.389Z" fill="#1B655A"/>
<path d="M303.5 10C270.295 10 261 46.6286 261 67.2928C261 87.9569 280.028 84.8314 303.5 84.8314C313.575 84.8314 322.825 85.4025 330.109 84.4258L333.612 75.8355L336.431 82.9534C342.41 80.7474 346 76.2636 346 67.2928C346 46.6286 337.849 10 303.5 10Z" fill="#2F2E41"/>
<path d="M302.5 84C318.24 84 331 71.2401 331 55.5C331 39.7599 318.24 27 302.5 27C286.76 27 274 39.7599 274 55.5C274 71.2401 286.76 84 302.5 84Z" fill="#FFB6B6"/>
<path d="M269 53H280.419L285.456 38.6923L286.463 53H291.921L294.86 44.6538L295.447 53H336C336 44.7783 332.78 36.8933 327.049 31.0797C321.317 25.2661 313.544 22 305.439 22H299.561C291.456 22 283.683 25.2661 277.951 31.0797C272.22 36.8933 269 44.7783 269 53Z" fill="#2F2E41"/>
<path d="M469 78H429V118H469V78Z" fill="#EF7445"/>
<path d="M360.181 221.17C355.779 221.227 342.518 141.642 342.518 141.642L340.534 98.7553L326.044 98.2627V97.2987C326.044 95.363 325.284 93.5065 323.931 92.1378C322.578 90.769 320.742 90 318.828 90H291.233C289.4 90.0009 287.636 90.7081 286.3 91.9776C284.964 93.2472 284.156 94.9838 284.041 96.8344L272.678 96.4481L253 159.685C253 159.685 271.133 218.442 262.381 244.336C262.381 244.336 347.647 251.742 363.971 235.304C363.971 235.304 364.584 221.112 360.181 221.17Z" fill="#1B655A"/>
<path d="M277 104.621L272.124 96.727C272.124 96.727 256.26 92.746 249.729 103.416C243.198 114.086 224 171.901 224 171.901L243.815 179L266.301 147.002L277 104.621Z" fill="#1B655A"/>
<path d="M321 145H279V185H321V145Z" fill="#EF7445"/>
<path d="M253.887 160.562L239.348 159C238.43 160.988 237.97 163.163 238.002 165.358C238.033 167.554 238.557 169.714 239.532 171.674C240.507 173.634 241.909 175.343 243.631 176.672C245.353 178.001 247.35 178.915 249.472 179.345L307 191L300.999 172.239L253.887 160.562Z" fill="#FFB6B6"/>
<path d="M307 191C313.627 191 319 185.851 319 179.5C319 173.149 313.627 168 307 168C300.373 168 295 173.149 295 179.5C295 185.851 300.373 191 307 191Z" fill="#FFB6B6"/>
<path d="M291.874 191L248.382 181.252C245.23 180.537 242.32 179.037 239.933 176.895C237.547 174.754 235.764 172.044 234.758 169.029L233 163.712L244.288 155L296 169.177L291.874 191Z" fill="#1B655A"/>
</g>
</svg>
