<svg width="827" height="501" viewBox="0 0 827 501" fill="none" xmlns="http://www.w3.org/2000/svg">
<g clip-path="url(#clip0_75_131)">
<mask id="mask0_75_131" style="mask-type:luminance" maskUnits="userSpaceOnUse" x="0" y="0" width="827" height="501">
<path d="M827 0H0V501H827V0Z" fill="white"/>
</mask>
<g mask="url(#mask0_75_131)">
<path d="M98.5 498H47.5C45.7767 497.998 44.1245 497.434 42.906 496.43C41.6874 495.427 41.002 494.066 41 492.647V405.353C41.002 403.934 41.6874 402.573 42.906 401.57C44.1245 400.566 45.7767 400.002 47.5 400H98.5C100.223 400.002 101.875 400.566 103.094 401.57C104.313 402.573 104.998 403.934 105 405.353V492.647C104.998 494.066 104.313 495.427 103.094 496.43C101.875 497.434 100.223 497.998 98.5 498Z" fill="#1B655A"/>
<path d="M462.5 498H411.5C409.777 497.998 408.125 497.298 406.906 496.055C405.687 494.811 405.002 493.125 405 491.367V6.6332C405.002 4.87459 405.687 3.18859 406.906 1.94506C408.125 0.701538 409.777 0.00203375 411.5 0H462.5C464.223 0.00203375 465.875 0.701538 467.094 1.94506C468.313 3.18859 468.998 4.87459 469 6.6332V491.367C468.998 493.125 468.313 494.811 467.094 496.055C465.875 497.298 464.223 497.998 462.5 498Z" fill="#1B655A"/>
<path d="M145.776 221.358C145.961 219.9 145.824 218.419 145.375 217.019C144.925 215.619 144.175 214.335 143.175 213.257C142.176 212.179 140.952 211.333 139.591 210.779C138.229 210.224 136.762 209.976 135.294 210.05L117.518 177.44L113.518 191.44L125.696 221.326C125.984 223.784 127.164 226.052 129.012 227.699C130.859 229.345 133.247 230.257 135.722 230.261C138.197 230.265 140.588 229.361 142.441 227.72C144.294 226.079 145.48 223.816 145.776 221.358Z" fill="#FFB8B8"/>
<path d="M8.8125 350.113L18.7135 357.342L51.3085 322.589L36.6945 311.92L8.8125 350.113Z" fill="#FFB8B8"/>
<path d="M31.0975 380.478L-0.0224609 357.758L8.75545 345.735L27.8518 359.676C31.0407 362.004 33.1741 365.504 33.7828 369.405C34.3915 373.306 33.4256 377.289 31.0975 380.478Z" fill="#2F2E41"/>
<path d="M61.1978 388.377L73.4578 388.376L79.2898 341.088L61.1958 341.089L61.1978 388.377Z" fill="#FFB8B8"/>
<path d="M97.1023 399.759L58.5715 399.761L58.5708 384.874L82.2147 384.873C86.1629 384.873 89.9496 386.441 92.7415 389.233C95.5335 392.025 97.1021 395.811 97.1023 399.759Z" fill="#2F2E41"/>
<path d="M98.0176 203.94C98.0176 203.94 104.018 261.94 89.0176 301.94L78.0176 377.941H59.0176L61.0176 287.94L54.0176 207.94C54.0176 207.94 68.0176 171.94 98.0176 203.94Z" fill="#2F2E41"/>
<path d="M33.0176 207.94L53.0176 276.94L14.0176 338.94L33.5176 355.44L78.0176 285.94L65.0176 200.94L33.0176 207.94Z" fill="#2F2E41"/>
<path d="M84.3286 54.2141C97.8933 54.2141 108.89 43.2178 108.89 29.6531C108.89 16.0884 97.8933 5.09204 84.3286 5.09204C70.764 5.09204 59.7676 16.0884 59.7676 29.6531C59.7676 43.2178 70.764 54.2141 84.3286 54.2141Z" fill="#FFB8B8"/>
<path d="M63.5177 62.4406C63.5177 62.4406 78.5177 52.4405 95.5177 74.4405L100.017 212.941C100.017 212.941 87.0177 194.941 60.0177 211.941C33.0177 228.941 27.0177 209.941 27.0177 209.941C27.0177 209.941 8.0177 66.9406 63.5177 62.4406Z" fill="#EF7445"/>
<path d="M94.3077 74.0913C98.6218 74.3245 102.697 76.1448 105.75 79.2019C108.803 82.2591 110.617 86.3372 110.844 90.6516L114.017 150.94L135.017 207.941L123.017 217.941L84.0176 149.94L76.0328 94.0474C75.6669 91.4856 75.8734 88.8745 76.6376 86.402C77.4018 83.9296 78.7047 81.6574 80.4524 79.7489C82.2001 77.8405 84.3492 76.3432 86.745 75.3649C89.1407 74.3866 91.7236 73.9516 94.3077 74.0913Z" fill="#EF7445"/>
<path d="M66.2816 48.0764C70.2969 52.3535 77.7538 50.0575 78.277 44.2143C78.318 43.7607 78.3151 43.3041 78.2681 42.851C77.998 40.2628 76.5027 37.913 76.8609 35.1801C76.9419 34.5 77.1953 33.8518 77.5971 33.297C80.7967 29.0124 88.3077 35.2134 91.3274 31.3347C93.179 28.9563 91.0025 25.2117 92.4234 22.5535C94.2988 19.0451 99.8535 20.7758 103.337 18.8544C107.213 16.7167 106.981 10.7702 104.43 7.15322C101.318 2.74223 95.863 0.388471 90.4757 0.0492209C85.0884 -0.290029 79.7382 1.16631 74.7087 3.12637C68.9941 5.35337 63.3273 8.43118 59.8107 13.456C55.534 19.5667 55.1225 27.782 57.2613 34.9273C58.5624 39.2739 63.0028 44.5837 66.2816 48.0764Z" fill="#2F2E41"/>
<path d="M343 150H287C284.239 150 282 152.239 282 155V493C282 495.761 284.239 498 287 498H343C345.761 498 348 495.761 348 493V155C348 152.239 345.761 150 343 150Z" fill="#D9D9D9"/>
<path d="M222 280H166C163.239 280 161 282.239 161 285V493C161 495.761 163.239 498 166 498H222C224.761 498 227 495.761 227 493V285C227 282.239 224.761 280 222 280Z" fill="#D9D9D9"/>
<path d="M468.134 501H-4.1338C-4.36376 500.999 -4.58408 500.84 -4.74646 500.559C-4.90883 500.278 -5 499.897 -5 499.5C-5 499.103 -4.90883 498.722 -4.74646 498.441C-4.58408 498.16 -4.36376 498.001 -4.1338 498H468.134C468.364 498.001 468.584 498.16 468.747 498.441C468.909 498.722 469 499.103 469 499.5C469 499.897 468.909 500.278 468.747 500.559C468.584 500.84 468.364 500.999 468.134 501Z" fill="#DFDFDF"/>
</g>
</g>
<defs>
<clipPath id="clip0_75_131">
<rect width="827" height="501" fill="white"/>
</clipPath>
</defs>
</svg>
