<svg width="827" height="501" viewBox="0 0 827 501" fill="none" xmlns="http://www.w3.org/2000/svg">
<g clip-path="url(#clip0_73_68)">
<path d="M86.1079 415.813C86.1079 415.813 -31.5241 361.661 9.79988 324.107C51.1239 286.553 86.1079 415.813 86.1079 415.813Z" fill="#1B655A"/>
<path d="M84.0602 428.45C84.0602 428.45 29.9922 250.799 109.609 259.295C189.226 267.791 84.0602 428.45 84.0602 428.45Z" fill="#1B655A"/>
<path d="M44.6392 412.694L46.9082 442.411L46.9442 442.924C46.9411 447.566 47.1747 452.206 47.6442 456.824C50.7242 487.135 63.9612 500.949 79.4322 500.949C94.9032 500.949 107.564 487.135 110.644 456.823C111.114 452.205 111.347 447.565 111.344 442.923L111.362 442.509L111.371 442.409L113.649 412.692L44.6392 412.694Z" fill="#E6E6E6"/>
<path d="M111.376 442.411L111.367 442.511L111.349 442.925C111.352 447.567 111.119 452.207 110.649 456.825H47.6491C47.1796 452.207 46.946 447.567 46.9491 442.925L46.9131 442.412L111.376 442.411Z" fill="#1B655A"/>
<path d="M785.892 435.408C785.892 435.408 694.819 393.482 726.813 364.408C758.807 335.334 785.892 435.408 785.892 435.408Z" fill="#1B655A"/>
<path d="M784.307 445.191C784.307 445.191 742.446 307.651 804.088 314.229C865.73 320.807 784.307 445.191 784.307 445.191Z" fill="#1B655A"/>
<path d="M753.785 432.993L755.542 456.001L755.57 456.401C755.569 459.993 755.75 463.584 756.114 467.159C758.498 490.627 768.747 501.322 780.725 501.322C792.703 501.322 802.506 490.622 804.89 467.159C805.254 463.584 805.436 459.993 805.434 456.401L805.448 456.08L805.455 456.003L807.219 432.995L753.785 432.993Z" fill="#E6E6E6"/>
<path d="M805.455 456L805.448 456.077L805.434 456.398C805.436 459.991 805.254 463.582 804.89 467.156H756.114C755.75 463.582 755.568 459.991 755.57 456.398L755.542 455.998L805.455 456Z" fill="#1B655A"/>
<path d="M306.93 148.247V107.83H300.645V148.247C298.843 148.976 297.35 150.31 296.423 152.019C295.495 153.728 295.192 155.706 295.563 157.615C295.935 159.524 296.958 161.244 298.459 162.48C299.959 163.717 301.843 164.393 303.788 164.393C305.732 164.393 307.616 163.717 309.117 162.48C310.617 161.244 311.641 159.524 312.012 157.615C312.384 155.706 312.08 153.728 311.153 152.019C310.226 150.31 308.733 148.976 306.93 148.247Z" fill="#E6E6E6"/>
<path d="M321.277 471.746H278.372V78H261.627V471.746H218.725C213.64 471.746 208.604 472.502 203.906 473.972C199.208 475.442 194.939 477.597 191.343 480.313C187.747 483.03 184.894 486.255 182.948 489.804C181.002 493.354 180 497.158 180 501H360C360 493.241 355.921 485.8 348.659 480.314C341.397 474.828 331.549 471.746 321.279 471.746L321.277 471.746Z" fill="#E6E6E6"/>
<path d="M193 118H347L337.582 13.2829C337.238 9.67223 335.387 6.30682 332.395 3.84869C329.402 1.39056 325.484 0.0176453 321.41 0H218.59C214.516 0.0176453 210.598 1.39056 207.605 3.84869C204.613 6.30682 202.762 9.67223 202.418 13.2829L193 118Z" fill="#EF7445"/>
<path d="M430.882 257.473C429.189 257.192 427.457 257.249 425.786 257.643C424.116 258.036 422.54 258.758 421.151 259.765C419.761 260.773 418.586 262.046 417.693 263.512C416.8 264.977 416.207 266.605 415.948 268.302L410.881 301.556L428.122 306.129L440.755 275.145C441.489 273.345 441.808 271.402 441.689 269.462C441.571 267.521 441.017 265.632 440.069 263.935C439.12 262.237 437.802 260.775 436.212 259.656C434.622 258.538 432.801 257.791 430.883 257.472L430.882 257.473Z" fill="#FFB9B9"/>
<path d="M430.56 300.494C440.128 338.518 436.01 373.294 400.381 400.603C357.647 388.823 329.224 360.403 311.881 319.094C310.803 316.526 310.256 313.765 310.274 310.98C310.292 308.195 310.875 305.442 311.986 302.888C313.097 300.334 314.714 298.031 316.74 296.119C318.766 294.207 321.158 292.726 323.772 291.764C327.7 290.32 331.974 290.106 336.027 291.15C340.079 292.195 343.718 294.448 346.458 297.611L388.388 346.011L408.058 297.211L430.56 300.494Z" fill="#EF7445"/>
<path d="M649.926 499.17C610.906 497.097 586.666 483.699 580.796 456.225L587.081 444.703L659.034 477.481C660.851 478.308 662.381 479.657 663.429 481.356C664.476 483.055 664.996 485.028 664.92 487.022C664.844 489.017 664.176 490.944 663.002 492.559C661.828 494.173 660.201 495.402 658.326 496.089L649.926 499.17Z" fill="#E6E6E6"/>
<path d="M619.775 501.445C599.501 500.831 580.004 501.022 561.529 502.272C558.289 502.494 555.091 501.428 552.631 499.307C550.171 497.186 548.646 494.181 548.387 490.943L547.278 477.078L531.567 451.94L545.184 438.323C568.067 461.114 593.163 480.257 622.969 491.637C623.927 492.293 624.647 493.242 625.021 494.341C625.394 495.441 625.402 496.631 625.043 497.735C624.683 498.839 623.976 499.797 623.026 500.466C622.077 501.134 620.937 501.478 619.776 501.444L619.775 501.445Z" fill="#E6E6E6"/>
<path d="M509.16 401.528C483.271 447.851 457.813 479.08 424.313 495.797C383.113 509.397 352.993 491.379 329.521 454.424L397.613 409.384L407.564 419.335L497.746 350.709C499.949 348.622 502.887 347.49 505.92 347.557C508.954 347.625 511.838 348.887 513.946 351.069L590.867 445.52L581.44 461.231L509.16 401.528Z" fill="#2F2E41"/>
<path d="M336.334 315.496L296.534 301.879C302.424 292.52 305.006 281.456 303.866 270.456H336.336C334.487 286.438 334.21 301.597 336.334 315.496Z" fill="#FFB9B9"/>
<path d="M409.13 420.905C381.855 433.955 352.999 444.543 333.191 463.326C286.902 431.893 243.998 334.264 299.673 291.548C318.673 302.669 335.653 310.627 335.286 291.548L409.13 420.905Z" fill="#EF7445"/>
<path opacity="0.2" d="M397.085 366.915L377.708 360.107L339.477 389.959L322.339 328.259C321.15 323.98 319.224 326.149 316.459 329.121C313.576 326.454 309.991 324.667 306.125 323.97C302.26 323.273 298.276 323.696 294.643 325.188C291.01 326.681 287.879 329.18 285.62 332.393C283.361 335.606 282.067 339.397 281.891 343.321C279.847 388.077 293.347 425.938 326.907 454.899C370.802 445.499 389.43 415.844 397.085 377.389L395.01 376.006C395.775 373.035 396.467 370.004 397.085 366.915Z" fill="black"/>
<path d="M398.652 320.223L431.245 358.541L480.135 300.841L447.101 260.76L398.652 320.223Z" fill="#3F3D56"/>
<path d="M471.767 302.163L433.008 270.451C435.208 265.166 445.781 266.927 445.781 266.927L476.121 297.686C477.178 298.758 478.084 299.969 478.814 301.286L471.767 302.163Z" fill="#F2F2F2"/>
<path d="M473.526 298.961L429.481 264.606L380.591 338.606L426.626 369.653C431.026 371.415 435.435 368.332 435.435 368.332L480.361 299.622L473.526 298.961Z" fill="#3F3D56"/>
<path d="M441.47 266.492L441.173 266.816L476.025 298.803L476.323 298.479L441.47 266.492Z" fill="#B3B3B3"/>
<path d="M438.568 266.765L438.276 267.096L474.701 299.253L474.993 298.923L438.568 266.765Z" fill="#B3B3B3"/>
<path d="M436.286 267.406L436.004 267.745L473.81 299.25L474.092 298.912L436.286 267.406Z" fill="#B3B3B3"/>
<path d="M416.246 332.472C414.837 331.492 413.248 330.801 411.57 330.44C409.892 330.08 408.159 330.056 406.472 330.371C404.784 330.685 403.176 331.332 401.741 332.273C400.306 333.215 399.072 334.432 398.111 335.854L379.278 363.726L392.895 375.248L417.59 352.672C419.025 351.36 420.147 349.742 420.871 347.938C421.596 346.133 421.905 344.189 421.776 342.249C421.647 340.309 421.083 338.422 420.126 336.73C419.168 335.038 417.843 333.582 416.246 332.472Z" fill="#FFB9B9"/>
<path d="M397.085 372.105C389.431 410.56 370.802 440.216 326.907 449.615C293.347 420.653 279.847 382.791 281.89 338.038C282.017 335.256 282.706 332.528 283.916 330.019C285.127 327.51 286.832 325.273 288.931 323.442C291.03 321.611 293.478 320.224 296.128 319.365C298.777 318.506 301.573 318.192 304.347 318.444C308.515 318.823 312.469 320.461 315.682 323.142C318.896 325.823 321.217 329.419 322.337 333.451L339.475 395.151L378.164 359.495L397.085 372.105Z" fill="#EF7445"/>
<path d="M499.095 32.9462C498.54 32.9475 498.008 33.1686 497.615 33.5612C497.222 33.9538 497.001 34.4859 497 35.0412V198.441C497.001 198.996 497.222 199.528 497.615 199.921C498.008 200.314 498.54 200.535 499.095 200.536H635.261C635.816 200.535 636.348 200.314 636.741 199.921C637.134 199.528 637.355 198.996 637.356 198.441V35.0412C637.355 34.4859 637.134 33.9538 636.741 33.5612C636.348 33.1686 635.816 32.9475 635.261 32.9462H499.095Z" fill="#E6E6E6"/>
<path d="M513.236 183.299H621.123V48.1812H513.236V183.299Z" fill="white"/>
<path d="M725.791 74.8911C725.459 74.8914 725.141 75.0233 724.906 75.2578C724.672 75.4924 724.54 75.8104 724.54 76.1421V157.435C724.54 157.767 724.672 158.085 724.906 158.319C725.141 158.554 725.459 158.686 725.791 158.686H823.343C823.674 158.686 823.992 158.554 824.227 158.319C824.461 158.085 824.593 157.767 824.594 157.435V76.1421C824.593 75.8104 824.461 75.4924 824.227 75.2578C823.992 75.0233 823.674 74.8914 823.343 74.8911H725.791Z" fill="#E6E6E6"/>
<path d="M734.235 84.5841V148.997H814.903V84.5841H734.235Z" fill="white"/>
<path d="M586.227 43.4661H548.127C547.206 43.4697 546.301 43.23 545.502 42.7712C544.704 42.3124 544.041 41.6508 543.581 40.8533C543.12 40.0559 542.879 39.151 542.881 38.2302C542.883 37.3095 543.128 36.4056 543.592 35.6101L562.641 2.61608L562.689 2.53508C563.105 1.83338 563.681 1.24004 564.37 0.803477C565.06 0.366918 565.842 0.0995161 566.655 0.0230818H566.683C566.846 0.0080818 567.011 8.68023e-05 567.177 8.68023e-05C568.097 -0.00523837 569.002 0.234543 569.799 0.694819C570.596 1.1551 571.256 1.81926 571.712 2.61907L590.765 35.6121C591.224 36.4082 591.466 37.3113 591.467 38.2306C591.467 39.15 591.225 40.0531 590.765 40.8493C590.305 41.6455 589.644 42.3067 588.848 42.7664C588.052 43.226 587.149 43.4681 586.23 43.4681L586.227 43.4661ZM547.077 38.2241C547.078 38.4099 547.128 38.5921 547.221 38.7531C547.311 38.9136 547.443 39.0468 547.603 39.139C547.762 39.2312 547.943 39.2788 548.128 39.2771H586.228C586.412 39.2789 586.593 39.2313 586.753 39.1391C586.912 39.047 587.044 38.9136 587.135 38.7531C587.227 38.5924 587.277 38.4105 587.279 38.2251C587.277 38.0424 587.228 37.8633 587.135 37.7061L568.085 4.71208C567.993 4.55281 567.86 4.42056 567.701 4.32861C567.542 4.23666 567.361 4.18824 567.177 4.18824C566.993 4.18824 566.813 4.23666 566.653 4.32861C566.494 4.42056 566.362 4.55281 566.27 4.71208L547.221 37.7061C547.127 37.8632 547.078 38.0414 547.077 38.2241Z" fill="#E6E6E6"/>
<path d="M567.177 9.94916C568.912 9.94916 570.319 8.54244 570.319 6.80716C570.319 5.07188 568.912 3.66516 567.177 3.66516C565.441 3.66516 564.035 5.07188 564.035 6.80716C564.035 8.54244 565.441 9.94916 567.177 9.94916Z" fill="#E6E6E6"/>
<path d="M784.897 76.5091H764.241C763.741 76.5111 763.251 76.3811 762.818 76.1324C762.385 75.8836 762.026 75.525 761.776 75.0927C761.526 74.6604 761.396 74.1698 761.396 73.6707C761.397 73.1715 761.53 72.6815 761.782 72.2501L772.11 54.3621L772.136 54.3181C772.361 53.9377 772.674 53.616 773.047 53.3794C773.421 53.1427 773.845 52.9976 774.286 52.9561H774.301C774.389 52.9481 774.479 52.9441 774.569 52.9441C775.068 52.9413 775.558 53.0713 775.991 53.3208C776.423 53.5704 776.781 53.9305 777.028 54.3642L787.36 72.2501C787.609 72.6821 787.74 73.1721 787.739 73.6707C787.739 74.1694 787.608 74.6592 787.358 75.0909C787.108 75.5226 786.749 75.8809 786.317 76.1299C785.885 76.3789 785.395 76.5097 784.897 76.5091ZM763.671 73.6671C763.671 73.7679 763.698 73.8669 763.749 73.9541C763.798 74.0412 763.869 74.1135 763.956 74.1634C764.042 74.2134 764.141 74.2392 764.241 74.2381H784.897C784.996 74.2392 785.095 74.2134 785.181 74.1634C785.268 74.1135 785.339 74.0412 785.389 73.9541C785.439 73.8671 785.466 73.7686 785.467 73.6681C785.466 73.5692 785.439 73.4723 785.389 73.3871L775.06 55.4971C775.01 55.4108 774.938 55.339 774.852 55.2891C774.765 55.2392 774.667 55.213 774.568 55.213C774.468 55.213 774.37 55.2392 774.283 55.2891C774.197 55.339 774.125 55.4108 774.076 55.4971L763.748 73.3851C763.697 73.4702 763.67 73.5672 763.67 73.6662L763.671 73.6671Z" fill="#E6E6E6"/>
<path d="M774.569 58.3382C775.51 58.3382 776.273 57.5753 776.273 56.6342C776.273 55.6931 775.51 54.9302 774.569 54.9302C773.628 54.9302 772.865 55.6931 772.865 56.6342C772.865 57.5753 773.628 58.3382 774.569 58.3382Z" fill="#E6E6E6"/>
<path d="M512.316 130.85C513.822 127.394 516.018 124.282 518.767 121.702C521.515 119.121 524.761 117.128 528.305 115.844C531.991 114.421 535.94 113.812 539.884 114.057C543.827 114.302 547.67 115.397 551.151 117.265C559.325 121.603 565.859 128.423 574.161 132.575C582.233 136.574 591.115 138.666 600.123 138.691C610.322 138.769 620.362 136.162 629.234 131.131C629.581 130.914 629.829 130.571 629.927 130.174C630.024 129.777 629.964 129.358 629.757 129.005C629.551 128.652 629.216 128.394 628.822 128.284C628.428 128.174 628.007 128.223 627.648 128.418C619.607 132.924 610.575 135.371 601.359 135.54C592.143 135.709 583.028 133.595 574.826 129.387C566.498 125.02 559.899 117.969 551.415 113.878C547.814 112.13 543.901 111.115 539.904 110.89C535.907 110.666 531.905 111.237 528.13 112.571C523.933 113.979 520.083 116.262 516.834 119.269C513.586 122.276 511.013 125.939 509.286 130.015C508.524 131.887 511.562 132.701 512.316 130.85Z" fill="#1B655A"/>
<path d="M511.986 160.223C529.424 156.33 547.512 156.392 564.923 160.406C580.39 163.993 596.356 170.446 612.302 165.633C619.426 163.483 625.956 159.182 629.616 152.564C630.595 150.793 627.883 149.206 626.903 150.978C620.012 163.439 603.867 165.542 591.116 163.497C582.596 162.131 574.385 159.391 565.998 157.431C547.968 153.204 529.215 153.122 511.15 157.192C509.177 157.634 510.013 160.664 511.986 160.223Z" fill="#1B655A"/>
<path d="M510.855 89.985C527.575 87.1412 544.7 87.7503 561.176 91.775C576.568 95.546 591.613 104.162 607.888 102.675C615.423 101.986 622.883 99.215 628.001 93.451C629.34 91.943 627.125 89.7131 625.779 91.2291C621.363 96.2021 615.003 98.7791 608.479 99.4751C600.957 100.275 593.566 98.7191 586.406 96.5051C578.481 94.0541 570.782 90.9491 562.724 88.9231C545.487 84.5952 527.535 83.9255 510.024 86.9571C508.035 87.2971 508.878 90.325 510.859 89.987L510.855 89.985Z" fill="#1B655A"/>
<path d="M748.282 80.5272C755.506 87.925 760.489 97.2164 762.655 107.327C764.32 115.371 764.132 123.688 762.105 131.648C760.078 139.607 756.264 147.001 750.955 153.268C749.655 154.801 751.865 157.034 753.177 155.49C760.409 146.969 765.028 136.54 766.477 125.457C767.533 116.902 766.645 108.219 763.879 100.054C761.113 91.8902 756.54 84.4554 750.501 78.3042C749.083 76.8582 746.861 79.0802 748.279 80.5262L748.282 80.5272Z" fill="#1B655A"/>
<path d="M795.427 75.8162C785.797 82.8792 780.406 94.2792 779.647 106.071C778.858 118.34 783.537 130.189 791.072 139.715C795.468 145.2 800.72 149.94 806.625 153.754C808.325 154.864 809.898 152.145 808.211 151.041C798.591 144.746 790.359 135.805 785.987 125.074C783.855 119.977 782.75 114.509 782.735 108.983C782.719 103.458 783.793 97.9838 785.896 92.8742C788.251 87.1843 792.09 82.231 797.013 78.5312C798.627 77.3472 797.061 74.6192 795.427 75.8182V75.8162Z" fill="#1B655A"/>
<path d="M584.664 108.328C592.763 108.328 599.328 101.763 599.328 93.664C599.328 85.5653 592.763 79 584.664 79C576.565 79 570 85.5653 570 93.664C570 101.763 576.565 108.328 584.664 108.328Z" fill="#1B655A"/>
<path d="M323.053 282.632C343.062 284.035 360.42 268.953 361.824 248.944C363.227 228.935 348.145 211.576 328.136 210.173C308.127 208.77 290.769 223.852 289.365 243.861C287.962 263.87 303.044 281.228 323.053 282.632Z" fill="#FFB9B9"/>
<path opacity="0.798" d="M532.613 455.178L497 400.712L505.379 385L552.513 434.229L532.613 455.178Z" fill="#2F2E41"/>
<rect x="622" y="37" width="14" height="160" fill="#E6E6E6"/>
<rect x="825" y="150" width="9" height="99" transform="rotate(90 825 150)" fill="#E6E6E6"/>
<rect x="825" y="75" width="9" height="99" transform="rotate(90 825 75)" fill="#E6E6E6"/>
<rect x="499" y="33" width="14" height="160" fill="#E6E6E6"/>
<path d="M292.681 277.334C299.067 284.99 310.926 280.88 311.758 270.422C311.823 269.61 311.818 268.792 311.744 267.981C311.314 263.349 308.936 259.143 309.506 254.251C309.635 253.034 310.038 251.873 310.676 250.88C315.765 243.211 327.71 254.311 332.512 247.368C335.457 243.111 331.995 236.408 334.255 231.651C337.237 225.371 346.071 228.469 351.611 225.03C357.775 221.203 357.406 210.559 353.349 204.085C348.401 196.19 339.725 191.977 331.158 191.37C322.59 190.763 314.082 193.369 306.083 196.878C296.995 200.864 287.983 206.373 282.39 215.367C275.589 226.304 274.935 241.009 278.336 253.799C280.405 261.579 287.467 271.083 292.681 277.334Z" fill="#2F2E41"/>
<path d="M826.631 501H0V499H827L826.631 501Z" fill="#DADADA"/>
</g>
<defs>
<clipPath id="clip0_73_68">
<rect width="827" height="501" fill="white"/>
</clipPath>
</defs>
</svg>
