<svg width="33" height="22" viewBox="0 0 33 22" fill="none" xmlns="http://www.w3.org/2000/svg">
<g clip-path="url(#clip0_63_99)">
<path d="M22.1557 16.8304C21.7313 16.8313 21.3108 16.7482 20.9186 16.5858C20.5264 16.4234 20.1703 16.185 19.8707 15.8843L16.5705 12.5841C16.4537 12.4731 16.2987 12.4112 16.1375 12.4112C15.9764 12.4112 15.8214 12.4731 15.7046 12.5841L12.3917 15.8969C12.0923 16.1977 11.7361 16.4362 11.3439 16.5986C10.9517 16.761 10.5312 16.844 10.1067 16.8429H9.45612L13.6364 21.0232C14.9408 22.3276 17.0577 22.3276 18.362 21.0232L22.5533 16.8304H22.1557ZM10.1067 5.15696C10.9711 5.15696 11.782 5.49327 12.3917 6.10303L15.7046 9.41584C15.7615 9.47286 15.8291 9.51809 15.9035 9.54896C15.978 9.57982 16.0577 9.59571 16.1383 9.59571C16.2189 9.59571 16.2987 9.57982 16.3731 9.54896C16.4475 9.51809 16.5151 9.47286 16.5721 9.41584L19.8723 6.1156C20.1716 5.81493 20.5275 5.57653 20.9194 5.41415C21.3113 5.25177 21.7315 5.16863 22.1557 5.16953H22.5533L18.362 0.978234C17.7352 0.351858 16.8854 0 15.9992 0C15.1131 0 14.2632 0.351858 13.6364 0.978234L9.45612 5.15853L10.1067 5.15696Z" fill="#4BB0A7"/>
<path d="M26.0217 8.63624L23.4884 6.10292C23.4315 6.12627 23.3707 6.13854 23.3092 6.13907H22.1573C21.5617 6.13907 20.9786 6.38108 20.559 6.80226L17.2588 10.1025C17.112 10.25 16.9376 10.3671 16.7454 10.447C16.5532 10.5269 16.3472 10.568 16.1391 10.568C15.931 10.568 15.7249 10.5269 15.5328 10.447C15.3406 10.3671 15.1661 10.25 15.0194 10.1025L11.7066 6.78811C11.2815 6.36483 10.7066 6.12649 10.1067 6.12492H8.69234C8.6337 6.12446 8.57565 6.11327 8.52104 6.09192L5.97828 8.63624C4.67391 9.94062 4.67391 12.0575 5.97828 13.3634L8.52104 15.9062C8.57504 15.8845 8.63256 15.8727 8.69076 15.8716H10.1067C10.7039 15.8716 11.2854 15.6312 11.7066 15.21L15.0178 11.8956C15.3199 11.608 15.7211 11.4475 16.1383 11.4475C16.5555 11.4475 16.9567 11.608 17.2588 11.8956L20.559 15.1959C20.9786 15.617 21.5617 15.8575 22.1573 15.8575H23.3092C23.3721 15.8575 23.4334 15.8732 23.4884 15.8952L26.0217 13.3619C27.3261 12.0575 27.3261 9.94062 26.0217 8.63624Z" fill="#4BB0A7"/>
</g>
<defs>
<clipPath id="clip0_63_99">
<rect width="33" height="22" fill="white"/>
</clipPath>
</defs>
</svg>
