<svg width="26" height="35" viewBox="0 0 26 35" fill="none" xmlns="http://www.w3.org/2000/svg">
<path d="M2.88871 0.233032C1.29296 0.233032 0 1.53303 0 3.12174V29.1217C0 30.7104 1.2935 32.0104 2.88871 32.0104H5.77742V32.8187C5.77742 33.6572 6.7473 34.1233 7.40207 33.5996L8.76406 32.5101C9.12926 32.218 9.64816 32.218 10.0134 32.5101L11.3753 33.5996C12.0301 34.1233 13 33.6572 13 32.8187V32.0104H23.1113C24.7076 32.0104 26 30.7104 26 29.1217V27.6771C26 29.2658 24.707 30.5658 23.1113 30.5658H13V28.6771C13 28.1248 12.5523 27.6771 12 27.6771H6.77796C6.22567 27.6771 5.77796 28.1248 5.77796 28.6771V30.5658H3.61129C2.41475 30.5658 1.44462 29.5545 1.44462 28.3992C1.44462 27.0992 2.41475 26.2325 3.61129 26.2325H23.1113C24.7076 26.2325 26 24.9325 26 23.3438V3.12174C26 1.53303 24.707 0.233032 23.1113 0.233032L2.88871 0.233032Z" fill="#1B655A"/>
</svg>
