<svg width="53" height="54" viewBox="0 0 53 54" fill="none" xmlns="http://www.w3.org/2000/svg">
<path d="M21.1959 26.9685L24.7373 23.4278C20.6167 21.5342 15.5717 22.281 12.1819 25.6715C7.83295 30.0198 7.83295 37.0968 12.1819 41.4466C16.5301 45.7957 23.608 45.7957 27.9563 41.4466C31.346 38.057 32.0936 33.0111 30.2 28.8903L26.6586 32.4317C27.0086 34.4995 26.3943 36.699 24.8016 38.2911C22.192 40.9016 17.9463 40.9016 15.3368 38.2911C12.7272 35.6815 12.7272 31.4359 15.3368 28.827C16.9294 27.2335 19.1289 26.6184 21.1959 26.9685Z" fill="#1B655A"/>
<path d="M33.5004 25.5907C37.0534 31.5818 36.2582 39.4555 31.1116 44.6013C25.0222 50.6907 15.1157 50.6907 9.02712 44.6013C2.93771 38.5129 2.93771 28.6054 9.02712 22.5161C14.1722 17.3702 22.0468 16.575 28.0377 20.1274L31.2691 16.8951C23.4654 11.6476 12.7653 12.4677 5.87155 19.3605C-1.95722 27.1885 -1.95722 39.928 5.87155 47.756C13.7004 55.5857 26.4383 55.5857 34.2671 47.756C41.1615 40.8623 41.9809 30.1623 36.7317 22.3576L33.5004 25.5907Z" fill="#1B655A"/>
<path d="M52.9251 9.4106C52.7585 8.97635 52.3368 8.70877 51.8591 8.7305L44.5546 9.07314L44.898 1.7695C44.9188 1.29105 44.6513 0.870985 44.2171 0.702669C43.7855 0.536009 43.2728 0.655983 42.9211 1.00607L35.1265 8.80141L34.7322 17.2195L20.5615 31.3892C19.8407 31.2259 19.0538 31.4192 18.4921 31.9809C17.6202 32.8527 17.6202 34.2647 18.4921 35.1365C19.363 36.0083 20.7758 36.0083 21.6476 35.1365C22.2085 34.5747 22.4028 33.7879 22.2393 33.0662L36.4091 18.8955L44.8264 18.5022L52.6218 10.7058C52.9728 10.355 53.0919 9.84392 52.9251 9.4106Z" fill="#1B655A"/>
</svg>
