<svg width="35" height="59" viewBox="0 0 35 59" fill="none" xmlns="http://www.w3.org/2000/svg">
<path d="M33.4182 22.6485C32.3796 21.7932 30.7912 21.9765 29.9359 23.0151L25.415 28.5746C24.1931 30.0408 22.3603 30.9573 20.4664 30.9573H15.3345C13.685 30.9573 12.1576 31.5682 10.9358 32.6679L6.29265 36.8833C5.86499 34.1341 5.49843 29.7965 6.59812 26.253C7.81999 22.343 7.88108 18.4941 7.63671 15.806C10.3859 15.0118 12.4631 12.0182 12.4631 8.47478C12.4631 4.32041 9.6528 0.89917 6.23155 0.89917C2.81031 0.89917 0 4.19823 0 8.41369C0 12.1404 2.26047 15.1951 5.19296 15.806C5.43734 18.1276 5.49843 21.6099 4.33765 25.3977C2.81031 30.2241 3.66562 36.028 4.21546 38.7161L3.78781 39.0827C2.81031 39.9991 2.68812 41.5265 3.60453 42.5651C4.09328 43.1149 4.76531 43.3593 5.43734 43.3593C6.04827 43.3593 6.59812 43.176 7.08687 42.7483L11.2412 39.0216L8.85858 46.1696C8.49202 47.3304 9.34733 48.4911 10.5692 48.4911H12.0355L11.119 56.1278C10.9358 57.4719 11.9133 58.6938 13.2573 58.8771C14.6014 59.0603 15.8233 58.0828 16.0065 56.7388L16.9229 48.7966C16.9229 48.6133 17.1062 48.4911 17.2284 48.4911H19.0612C19.2445 48.4911 19.3667 48.6133 19.3667 48.7966L20.2831 56.6777C20.4053 57.9607 21.505 58.8771 22.7268 58.8771C22.849 58.8771 22.9101 58.8771 23.0323 58.8771C24.3764 58.6938 25.3539 57.533 25.1706 56.1278L24.3153 48.5522H25.7815C27.0034 48.5522 27.8587 47.3915 27.4921 46.2307L23.8876 35.2949C25.9648 34.6229 27.7976 33.401 29.2028 31.6904L33.7237 26.1309C34.6401 25.0312 34.4568 23.5038 33.4182 22.6485Z" fill="#1B655A"/>
<path d="M18.2059 29.3688C21.5125 29.3688 24.1931 26.6883 24.1931 23.3816C24.1931 20.075 21.5125 17.3945 18.2059 17.3945C14.8993 17.3945 12.2187 20.075 12.2187 23.3816C12.2187 26.6883 14.8993 29.3688 18.2059 29.3688Z" fill="#1B655A"/>
</svg>
