<svg width="80" height="48" viewBox="0 0 80 48" fill="none" xmlns="http://www.w3.org/2000/svg">
<path d="M40 30.1085C44.0181 30.1085 47.2755 26.8512 47.2755 22.8331C47.2755 18.815 44.0181 15.5576 40 15.5576C35.9819 15.5576 32.7246 18.815 32.7246 22.8331C32.7246 26.8512 35.9819 30.1085 40 30.1085Z" fill="#1B655A"/>
<path d="M53.274 45.9462C53.273 46.2872 53.1371 46.6139 52.896 46.855C52.6549 47.0961 52.3281 47.232 51.9871 47.233H28.0129C27.6719 47.232 27.3452 47.0961 27.1041 46.855C26.863 46.6139 26.7271 46.2872 26.7261 45.9462C26.7261 42.4257 28.1246 39.0494 30.6139 36.5601C33.1033 34.0707 36.4795 32.6722 40 32.6722C43.5205 32.6722 46.8968 34.0707 49.3861 36.5601C51.8755 39.0494 53.274 42.4257 53.274 45.9462Z" fill="#1B655A"/>
<path d="M66.7261 15.1791C70.7442 15.1791 74.0015 11.9218 74.0015 7.90368C74.0015 3.88556 70.7442 0.628235 66.7261 0.628235C62.708 0.628235 59.4506 3.88556 59.4506 7.90368C59.4506 11.9218 62.708 15.1791 66.7261 15.1791Z" fill="#1B655A"/>
<path d="M80 31.0168C79.999 31.3578 79.8631 31.6845 79.622 31.9256C79.3809 32.1667 79.0542 32.3026 78.7132 32.3036H54.7389C54.3979 32.3026 54.0712 32.1667 53.8301 31.9256C53.589 31.6845 53.4531 31.3578 53.4521 31.0168C53.4521 27.4963 54.8506 24.1201 57.34 21.6307C59.8293 19.1414 63.2056 17.7429 66.7261 17.7429C70.2465 17.7429 73.6228 19.1414 76.1122 21.6307C78.6015 24.1201 80 27.4963 80 31.0168Z" fill="#1B655A"/>
<path d="M13.274 16.169C17.2921 16.169 20.5494 12.9117 20.5494 8.89355C20.5494 4.87543 17.2921 1.6181 13.274 1.6181C9.25583 1.6181 5.9985 4.87543 5.9985 8.89355C5.9985 12.9117 9.25583 16.169 13.274 16.169Z" fill="#1B655A"/>
<path d="M26.5479 32.0066C26.5469 32.3476 26.411 32.6743 26.1699 32.9155C25.9288 33.1566 25.6021 33.2925 25.2611 33.2934H1.28681C0.945832 33.2925 0.619103 33.1566 0.377994 32.9155C0.136885 32.6743 0.00099236 32.3476 0 32.0066C0 28.4862 1.3985 25.1099 3.88785 22.6205C6.37719 20.1312 9.75347 18.7327 13.2739 18.7327C16.7944 18.7327 20.1707 20.1312 22.66 22.6205C25.1494 25.1099 26.5479 28.4862 26.5479 32.0066Z" fill="#1B655A"/>
</svg>
