<svg width="20" height="24" viewBox="0 0 20 24" fill="none" xmlns="http://www.w3.org/2000/svg">
<path d="M10 10.962C13.0271 10.962 15.481 8.50807 15.481 5.481C15.481 2.45393 13.0271 0 10 0C6.97294 0 4.51901 2.45393 4.51901 5.481C4.51901 8.50807 6.97294 10.962 10 10.962Z" fill="#1B655A"/>
<path d="M20 22.8934C19.9993 23.1502 19.8969 23.3964 19.7152 23.578C19.5336 23.7597 19.2875 23.862 19.0306 23.8628H0.969426C0.712548 23.862 0.466405 23.7597 0.284764 23.578C0.103123 23.3964 0.0007476 23.1502 0 22.8934C0 20.2412 1.05357 17.6977 2.92893 15.8223C4.8043 13.9469 7.34784 12.8934 10 12.8934C12.6522 12.8934 15.1957 13.9469 17.0711 15.8223C18.9464 17.6977 20 20.2412 20 22.8934Z" fill="#1B655A"/>
</svg>
