<svg width="827" height="501" viewBox="0 0 827 501" fill="none" xmlns="http://www.w3.org/2000/svg">
<g clip-path="url(#clip0_76_155)">
<path d="M0.989436 240.101C2.52533 242.655 4.60495 244.843 7.08181 246.51C9.55867 248.177 12.3725 249.283 15.3252 249.75C18.2778 250.217 21.2974 250.034 24.1714 249.214C27.0453 248.393 29.7035 246.956 31.959 245.002L95 281L92.6505 243.473L33.1459 215.042C29.5978 211.487 24.8633 209.351 19.8395 209.04C14.8157 208.728 9.85164 210.262 5.88795 213.351C1.92425 216.44 -0.763684 220.869 -1.66651 225.8C-2.56934 230.73 -1.62433 235.819 0.989436 240.101Z" fill="#FFB8B8"/>
<path d="M182.828 384.382C164.316 410.273 164.978 453.591 170.143 501H257.669L261.474 492.127L266.548 501H349C349 501 342.658 380.579 331.241 376.776C319.825 372.973 182.828 384.382 182.828 384.382Z" fill="#2F2E41"/>
<path d="M257.5 113C282.077 113 302 92.8528 302 68C302 43.1472 282.077 23 257.5 23C232.923 23 213 43.1472 213 68C213 92.8528 232.923 113 257.5 113Z" fill="#FFB8B8"/>
<path d="M289.955 124L298.677 140.72L359 167.618L343.143 321.109L336.47 337.004L340.075 350.807L331.382 360.994C340.108 368.891 341.217 377.159 336.47 385.711L308.691 392.076C308.691 392.076 154.234 405.814 167.251 381.879C181.474 355.727 185.095 278.493 153.697 237.22C127.04 202.181 147.506 156.714 147.506 156.714L210.736 137.813L233.993 124L289.955 124Z" fill="#EF7445"/>
<path d="M277.282 2.68518C277.492 2.24394 277.829 1.8751 278.25 1.62603C278.671 1.37696 279.157 1.25904 279.646 1.28741C259.253 0.0720644 237.772 2.44014 220.71 13.6365C216.577 16.3491 212.68 19.5845 208.182 21.5522C207.97 21.6472 207.786 21.7954 207.648 21.9822C207.51 22.169 207.423 22.3881 207.395 22.6184C207.368 22.8486 207.4 23.082 207.49 23.296C207.579 23.51 207.723 23.6973 207.907 23.8397L208.401 24.2257C208.595 24.378 208.745 24.5806 208.832 24.8115C208.92 25.0424 208.942 25.2928 208.896 25.5353C208.851 25.7779 208.739 26.0034 208.574 26.1874C208.409 26.3713 208.197 26.5066 207.96 26.5786C207.713 26.6536 207.492 26.7973 207.325 26.9929C207.157 27.1885 207.049 27.4278 207.013 27.6826C206.977 27.9373 207.015 28.197 207.123 28.4309C207.23 28.6648 207.402 28.8633 207.619 29.0029L211.405 31.4407C211.596 31.5613 211.753 31.7277 211.862 31.9246C211.972 32.1215 212.03 32.3426 212.031 32.5676C212.032 32.7926 211.977 33.0143 211.87 33.2124C211.762 33.4105 211.607 33.5786 211.418 33.7013C211.097 33.8986 210.76 34.0687 210.411 34.2098C210.194 34.2912 210.001 34.4269 209.852 34.604C209.702 34.781 209.601 34.9934 209.558 35.2207C209.515 35.448 209.531 35.6825 209.606 35.9016C209.68 36.1208 209.81 36.3171 209.983 36.4717C211.622 37.9258 212.88 39.7573 213.646 41.8066C214.907 45.0753 215.134 48.6353 215.347 52.131C216.651 47.0871 222.177 44.118 227.396 43.8163C232.615 43.5146 237.705 45.2303 242.785 46.4636C253.848 49.142 265.338 49.5824 276.575 47.7586C272.759 55.3877 275.978 64.4875 279.217 72.3768L289.702 67.8996C304.101 59.8019 294.071 94.0567 288.688 98.7593C299.679 102.556 328.448 60.4189 319.193 44.4354C314.379 36.121 317.796 25.3975 308.332 17.5119C303.693 12.6467 294.431 14.8091 289.702 10.7656C287.84 9.1741 290.677 4.91634 288.12 3.98843C287.27 3.68023 277.423 2.37456 277.282 2.68518Z" fill="#2F2E41"/>
<path d="M202 142C193.819 178.347 172.835 263.213 151.546 280.961C150.196 282.237 148.577 283.193 146.808 283.76C71.9773 302.003 48 255.469 48 255.469C48 255.469 68.0538 245.69 68.5624 226.575L109.004 239.132L144.258 159.741L149.446 154.899L149.475 154.87L202 142Z" fill="#3F3D56"/>
<path d="M360.997 478.205C363.158 476.146 364.837 473.642 365.916 470.87C366.996 468.098 367.448 465.126 367.243 462.161C367.038 459.197 366.179 456.313 364.728 453.714C363.277 451.114 361.268 448.861 358.844 447.114L380 378L343.7 388.675L329.175 452.67C326.484 456.902 325.453 461.965 326.276 466.9C327.1 471.836 329.721 476.3 333.644 479.448C337.566 482.596 342.517 484.208 347.559 483.979C352.6 483.75 357.381 481.695 360.997 478.205Z" fill="#FFB8B8"/>
<path d="M342.122 164L358.635 167.869C358.635 167.869 426.89 301.638 410.442 327.126C393.995 352.614 373.845 437 373.845 437C373.845 437 344.043 431.032 332.656 415.739L353.508 315.656L332 231.544L342.122 164Z" fill="#EF7445"/>
<path d="M26 362.11L26.5998 147.35C26.6168 143.003 28.37 138.84 31.4745 135.775C34.5791 132.71 38.7815 130.993 43.1599 131L206.531 131.45C210.91 131.467 215.103 133.207 218.19 136.289C221.277 139.371 223.007 143.543 223 147.89L222.4 362.65C222.383 366.997 220.63 371.16 217.526 374.225C214.421 377.29 210.219 379.007 205.84 379L42.4686 378.55C38.0903 378.533 33.8975 376.793 30.8101 373.711C27.7227 370.629 25.9928 366.457 26 362.11Z" fill="#E6E6E6"/>
<path d="M39.0001 297.62L39.384 158.436C39.3999 154.332 41.0348 150.402 43.9301 147.508C46.8254 144.615 50.7446 142.993 54.8278 143L194.641 143.39C198.724 143.405 202.634 145.049 205.514 147.958C208.393 150.868 210.007 154.807 210 158.911L209.469 351.564C209.453 355.668 207.817 359.598 204.922 362.492C202.027 365.386 198.107 367.007 194.024 367L107.413 366.759C89.2246 366.687 71.8072 359.368 58.9818 346.407C46.1564 333.445 38.9703 315.9 39.0001 297.62Z" fill="white"/>
<path d="M178.518 204H70.4821C68.763 204 67.1142 203.315 65.8986 202.096C64.6829 200.877 64 199.224 64 197.5C64 195.776 64.6829 194.123 65.8986 192.904C67.1142 191.685 68.763 191 70.4821 191H178.518C180.237 191 181.886 191.685 183.101 192.904C184.317 194.123 185 195.776 185 197.5C185 199.224 184.317 200.877 183.101 202.096C181.886 203.315 180.237 204 178.518 204Z" fill="#1B655A"/>
<path d="M94.4706 174H70.5294C68.7977 174 67.1369 173.315 65.9124 172.096C64.6879 170.877 64 169.224 64 167.5C64 165.776 64.6879 164.123 65.9124 162.904C67.1369 161.685 68.7977 161 70.5294 161H94.4706C96.2023 161 97.8631 161.685 99.0876 162.904C100.312 164.123 101 165.776 101 167.5C101 169.224 100.312 170.877 99.0876 172.096C97.8631 173.315 96.2023 174 94.4706 174Z" fill="#1B655A"/>
<path d="M178.518 234H70.4821C68.763 234 67.1142 233.368 65.8986 232.243C64.6829 231.117 64 229.591 64 228C64 226.409 64.6829 224.883 65.8986 223.757C67.1142 222.632 68.763 222 70.4821 222H178.518C180.237 222 181.886 222.632 183.101 223.757C184.317 224.883 185 226.409 185 228C185 229.591 184.317 231.117 183.101 232.243C181.886 233.368 180.237 234 178.518 234Z" fill="#1B655A"/>
<path d="M178.518 264H70.4821C68.763 264 67.1142 263.368 65.8986 262.243C64.6829 261.117 64 259.591 64 258C64 256.409 64.6829 254.883 65.8986 253.757C67.1142 252.632 68.763 252 70.4821 252H178.518C180.237 252 181.886 252.632 183.101 253.757C184.317 254.883 185 256.409 185 258C185 259.591 184.317 261.117 183.101 262.243C181.886 263.368 180.237 264 178.518 264Z" fill="#1B655A"/>
<path d="M170 344C184.359 344 196 332.359 196 318C196 303.641 184.359 292 170 292C155.641 292 144 303.641 144 318C144 332.359 155.641 344 170 344Z" fill="#1B655A"/>
<path d="M166.33 332C165.866 332 165.408 331.896 164.992 331.695C164.577 331.495 164.216 331.204 163.937 330.846L156.6 321.413C156.364 321.11 156.192 320.765 156.094 320.398C155.996 320.031 155.974 319.649 156.03 319.274C156.085 318.898 156.217 318.537 156.417 318.211C156.617 317.885 156.882 317.6 157.197 317.372C157.511 317.145 157.869 316.979 158.25 316.885C158.631 316.791 159.027 316.771 159.416 316.825C159.805 316.878 160.18 317.006 160.518 317.199C160.856 317.393 161.151 317.649 161.387 317.952L166.187 324.123L178.514 306.292C178.732 305.976 179.012 305.704 179.338 305.492C179.665 305.28 180.031 305.132 180.417 305.057C180.803 304.982 181.201 304.981 181.587 305.054C181.973 305.128 182.34 305.274 182.668 305.484C182.995 305.695 183.277 305.966 183.495 306.281C183.714 306.597 183.866 306.951 183.943 307.323C184.019 307.696 184.019 308.079 183.942 308.451C183.864 308.823 183.712 309.177 183.492 309.492L168.819 330.715C168.554 331.099 168.197 331.416 167.778 331.64C167.359 331.863 166.891 331.986 166.413 331.999C166.385 332 166.358 332 166.33 332Z" fill="white"/>
<path d="M114.5 81C121.404 81 127 75.4036 127 68.5C127 61.5964 121.404 56 114.5 56C107.596 56 102 61.5964 102 68.5C102 75.4036 107.596 81 114.5 81Z" fill="#1B655A"/>
<path d="M69.5 435C76.4036 435 82 429.627 82 423C82 416.373 76.4036 411 69.5 411C62.5964 411 57 416.373 57 423C57 429.627 62.5964 435 69.5 435Z" fill="#1B655A"/>
<path d="M353.5 128C360.404 128 366 122.627 366 116C366 109.373 360.404 104 353.5 104C346.596 104 341 109.373 341 116C341 122.627 346.596 128 353.5 128Z" fill="#1B655A"/>
</g>
<defs>
<clipPath id="clip0_76_155">
<rect width="827" height="501" fill="white"/>
</clipPath>
</defs>
</svg>
