<svg width="60" height="60" viewBox="0 0 60 60" fill="none" xmlns="http://www.w3.org/2000/svg">
<path fill-rule="evenodd" clip-rule="evenodd" d="M50 48.3636H41.1594V35.5804C41.1594 32.2343 39.7766 29.9501 36.7357 29.9501C34.4097 29.9501 33.1162 31.4916 32.5141 32.9771C32.2883 33.5104 32.3236 34.2531 32.3236 34.9959V48.3636H23.5654C23.5654 48.3636 23.6783 25.7193 23.5654 23.661H32.3236V27.5379C32.841 25.8427 35.6397 23.4235 40.1058 23.4235C45.6467 23.4235 50 26.9767 50 34.628V48.3636ZM14.7084 20.5711H14.6519C11.8297 20.5711 10 18.6827 10 16.289C10 13.8488 11.8838 12 14.7625 12C17.6388 12 19.4073 13.8442 19.4638 16.2821C19.4638 18.6757 17.6387 20.5711 14.7084 20.5711ZM11.0089 23.661H18.8053V48.3636H11.0089V23.661Z" fill="#1C3433"/>
</svg>
