<svg width="14" height="14" viewBox="0 0 14 14" fill="none" xmlns="http://www.w3.org/2000/svg">
  <path d="M7 0C5.14373 0 3.36276 0.737684 2.05012 2.05012C0.737615 3.36262 0 5.14356 0 7C0 8.85644 0.737684 10.6372 2.05012 11.9499C3.36262 13.2624 5.14356 14 7 14C8.85644 14 10.6372 13.2623 11.9499 11.9499C13.2624 10.6374 14 8.85644 14 7C13.998 5.14425 13.2603 3.36465 11.9478 2.05218C10.6353 0.739682 8.85575 0.00206769 7 0ZM7.71818 10.4105H6.28184C5.985 10.4105 5.74338 10.1689 5.74338 9.87202C5.74338 9.57452 5.985 9.33356 6.28184 9.33356H6.46156V6.10279H6.28184C5.985 6.10279 5.74338 5.86117 5.74338 5.56433C5.74338 5.26683 5.985 5.02587 6.28184 5.02587H7.00002C7.29549 5.02924 7.53445 5.26817 7.53848 5.56433V9.33356H7.7182C8.01503 9.33356 8.25666 9.57452 8.25666 9.87202C8.25666 10.1689 8.01501 10.4105 7.71818 10.4105ZM6.85664 3.05105C7.07404 3.05105 7.27057 3.1823 7.35404 3.38355C7.4375 3.58481 7.39106 3.81634 7.23692 3.97047C7.08346 4.1246 6.85125 4.17038 6.65068 4.08691C6.44943 4.00412 6.31818 3.80758 6.31818 3.58951C6.32155 3.29404 6.56048 3.05508 6.85664 3.05105Z" fill="white"/>
</svg>
