<svg width="60" height="60" viewBox="0 0 60 60" fill="none" xmlns="http://www.w3.org/2000/svg">
<path d="M31.0084 7.03838C33.5212 7 36.0157 7.01996 38.5086 7C38.5915 10.1177 39.8564 12.9238 41.8688 15.0022L41.8658 14.9991C44.0317 16.9502 46.8501 18.2151 49.957 18.43L50 18.433V26.1636C47.065 26.0899 44.305 25.4129 41.8167 24.2494L41.9425 24.3015C40.739 23.7228 39.7213 23.1288 38.7542 22.4656L38.8341 22.5178C38.8156 28.1192 38.8525 33.7206 38.7957 39.302C38.6376 42.1465 37.692 44.7407 36.1753 46.9067L36.206 46.8591C33.6701 50.491 29.5624 52.875 24.8912 53.0162H24.8697C24.6809 53.0254 24.4583 53.03 24.2342 53.03C21.5786 53.03 19.0964 52.2901 16.9811 51.0053L17.0425 51.0406C13.1926 48.7242 10.5369 44.7607 10.0457 40.1509L10.0396 40.088C10.0012 39.1286 9.98279 38.1692 10.0212 37.2297C10.7733 29.8937 16.9197 24.2187 24.3908 24.2187C25.2304 24.2187 26.0532 24.2908 26.853 24.4274L26.767 24.4151C26.8054 27.2534 26.6903 30.0933 26.6903 32.9316C26.0409 32.6967 25.2918 32.5601 24.5105 32.5601C21.643 32.5601 19.2038 34.393 18.3012 36.9519L18.2874 36.9979C18.0833 37.6534 17.9651 38.4071 17.9651 39.1869C17.9651 39.5031 17.985 39.8163 18.0218 40.1233L18.0188 40.0865C18.5284 43.2272 21.2209 45.5973 24.4675 45.5973C24.5612 45.5973 24.6533 45.5957 24.7454 45.5911H24.7316C26.9773 45.5236 28.9268 44.3155 30.029 42.5303L30.0444 42.5026C30.4542 41.9316 30.7351 41.2408 30.8288 40.4902L30.8303 40.4687C31.0222 37.0348 30.9454 33.6208 30.9639 30.1869C30.9823 22.4564 30.9454 14.7443 31.0022 7.03377L31.0084 7.03838Z" fill="#1C3433"/>
</svg>
